<svg width="106.894226" height="73.545166" viewBox="0 0 106.894 73.5452" fill="none" xmlns="http://www.w3.org/2000/svg" xmlns:xlink="http://www.w3.org/1999/xlink">
	<desc>
			Created with Pixso.
	</desc>
	<defs/>
	<path id="Vector" d="M74.87 45.4C72.37 44.99 69.9 46.34 68.85 48.68C68.65 49.13 68.51 49.6 68.43 50.07C71.01 48.8 73.27 47.27 75.22 45.46L74.87 45.4Z" fill="#124C5F" fill-opacity="1.000000" fill-rule="nonzero"/>
	<path id="Vector" d="M70.85 47.57Q71.46 47.18 72.03 46.77Q71.91 46.82 71.79 46.89Q71.47 47.07 71.18 47.29Q71.01 47.42 70.85 47.57ZM73.86 45.33C74.19 45.32 74.53 45.35 74.87 45.4L75.22 45.46C74.89 45.76 74.56 46.05 74.22 46.33C72.83 47.5 71.3 48.54 69.62 49.46C69.23 49.67 68.84 49.87 68.43 50.07C68.51 49.62 68.64 49.18 68.82 48.75C68.83 48.73 68.84 48.7 68.85 48.68C69.76 46.66 71.73 45.38 73.86 45.33Z" fill="#000000" fill-opacity="1.000000" fill-rule="evenodd"/>
	<path id="Vector" d="M80.16 8.59C83.21 13.34 81.88 19.69 77.19 22.77C72.5 25.86 66.23 24.52 63.18 19.77C60.13 15.03 61.46 8.68 66.15 5.59C70.83 2.5 77.11 3.84 80.16 8.59Z" fill="#124C5F" fill-opacity="1.000000" fill-rule="evenodd"/>
	<path id="Vector" d="M77.19 22.77C81.88 19.69 83.21 13.34 80.16 8.59C77.11 3.84 70.83 2.5 66.15 5.59C61.46 8.68 60.13 15.03 63.18 19.77C66.23 24.52 72.5 25.86 77.19 22.77ZM79.2 19.46Q78.22 20.9 76.65 21.93Q75.08 22.97 73.38 23.3Q71.65 23.63 69.78 23.23Q67.95 22.84 66.52 21.85Q65.06 20.84 64.02 19.22Q62.97 17.6 62.66 15.84Q62.35 14.12 62.74 12.26Q63.13 10.37 64.13 8.9Q65.12 7.46 66.69 6.43Q68.26 5.39 69.96 5.07Q71.69 4.73 73.55 5.13Q75.39 5.53 76.82 6.51Q78.28 7.52 79.32 9.14Q80.36 10.76 80.68 12.52Q80.99 14.24 80.6 16.1Q80.21 17.99 79.2 19.46Z" fill="#000000" fill-opacity="1.000000" fill-rule="evenodd"/>
	<path id="Vector" d="M95.78 25.36C91.4 19.87 85.45 19.81 82.16 22.05C78.88 24.29 79.12 29.98 81.86 33.79C81.99 34 82.12 34.22 82.25 34.44C83.19 31.54 83.33 29.43 83.33 29.4C83.42 26.94 85.4 25.01 87.82 25.01C87.88 25.01 87.94 25.01 87.99 25.01C90.47 25.11 92.42 27.23 92.32 29.74L92.32 29.74L92.32 29.79C92.25 31.19 91.77 36.25 88.76 42.26C88.48 42.81 88.16 43.41 87.79 44.05C88.42 45.28 89.03 46.52 89.58 47.79L85.74 47.17C83.15 50.69 79.17 54.69 73.26 57.82L90.42 72.21C91.47 73.09 92.74 73.51 94.01 73.51C95.62 73.51 97.23 72.81 98.34 71.45C100.32 69.03 99.99 65.43 97.6 63.43L93.47 59.97L94.8 60.18C95.22 60.25 95.63 60.27 96.03 60.24C97 60.29 98.14 59.95 99.54 59.45C103.44 58.08 107.85 55.66 106.7 48.27C104.39 38.35 101.75 32.95 95.78 25.36Z" fill="#124C5F" fill-opacity="1.000000" fill-rule="nonzero"/>
	<path id="Vector" d="M96.03 60.24C97 60.29 98.14 59.95 99.54 59.45C103.44 58.08 107.85 55.66 106.7 48.27C104.39 38.35 101.75 32.95 95.78 25.36C91.4 19.87 85.45 19.81 82.16 22.05C79.01 24.2 79.11 29.53 81.55 33.33C81.65 33.49 81.75 33.64 81.86 33.79C81.99 34 82.12 34.22 82.25 34.44C82.4 33.99 82.52 33.56 82.63 33.15C83.23 30.93 83.33 29.42 83.33 29.4C83.42 26.94 85.4 25.01 87.82 25.01C87.88 25.01 87.94 25.01 87.99 25.01C90.47 25.11 92.42 27.23 92.32 29.74L92.32 29.74L92.32 29.79C92.25 31.19 91.77 36.25 88.76 42.26C88.48 42.81 88.16 43.41 87.79 44.05C88.24 44.92 88.67 45.81 89.09 46.7C89.26 47.06 89.42 47.43 89.58 47.79L88.4 47.6L85.74 47.17C83.29 50.5 79.6 54.26 74.2 57.3C73.89 57.48 73.58 57.65 73.26 57.82L74.08 58.51L90.42 72.21C91.47 73.09 92.74 73.51 94.01 73.51C95.62 73.51 97.23 72.81 98.34 71.45C100.32 69.03 99.99 65.43 97.6 63.43L94.96 61.21L93.47 59.97L94.8 60.18C94.99 60.21 95.17 60.23 95.36 60.25C95.58 60.26 95.81 60.26 96.03 60.24ZM75.02 57.99L91.06 71.44Q91.73 72 92.49 72.26Q93.21 72.51 94.01 72.51Q95.07 72.51 95.94 72.11Q96.86 71.69 97.57 70.82Q98.17 70.08 98.43 69.24Q98.71 68.37 98.61 67.37Q98.52 66.37 98.08 65.56Q97.67 64.79 96.95 64.19L90.04 58.39L94.97 59.2Q95.45 59.28 95.97 59.25L96.02 59.24L96.08 59.25Q97 59.29 99.21 58.51Q103.42 57.02 104.97 54.12Q106.23 51.76 105.72 48.46Q103.8 40.24 99.82 33.18Q97.69 29.41 94.99 25.98Q92.7 23.11 89.78 22.14Q89.1 21.92 88.39 21.79Q86.07 21.39 84.18 22.11Q83.42 22.4 82.73 22.88L82.73 22.88Q82.32 23.15 82 23.51Q80.76 24.86 80.75 27.33Q80.75 28.6 81.05 29.79Q81.34 30.93 81.91 31.99Q82.28 30.48 82.33 29.35Q82.38 28.19 82.82 27.22Q83.24 26.31 84 25.57Q84.8 24.79 85.75 24.4Q86.71 24.01 87.82 24.01Q87.93 24.01 88.03 24.02Q89.13 24.06 90.07 24.47Q91.06 24.92 91.86 25.79Q92.63 26.63 92.99 27.61Q93.36 28.61 93.32 29.75L93.32 29.78L93.32 29.85Q92.99 36.04 89.65 42.71Q89.31 43.38 88.92 44.08Q89.82 45.83 90.5 47.39L91.23 49.08L86.18 48.25Q84.88 49.95 83.41 51.48Q79.76 55.26 75.02 57.99Z" fill="#000000" fill-opacity="1.000000" fill-rule="evenodd"/>
	<path id="Vector" d="M87.96 41.84C91.2 35.38 91.41 30.04 91.43 29.7C91.5 27.69 89.95 26 87.96 25.93C85.97 25.85 84.31 27.42 84.23 29.43L84.23 29.43C84.22 29.66 83.92 34.05 81.29 39.01C78.63 43.97 73.86 49.54 64.18 52.81C62.29 53.44 61.27 55.5 61.89 57.41C62.39 58.94 63.8 59.92 65.31 59.92C65.69 59.92 66.07 59.86 66.44 59.73C78.27 55.81 84.75 48.29 87.96 41.84Z" fill="#124C5F" fill-opacity="1.000000" fill-rule="nonzero"/>
	<path id="Vector" d="M84.08 30.7C84.2 29.96 84.23 29.5 84.23 29.43L84.23 29.43L84.23 29.43L84.23 29.43C84.25 29.01 84.33 28.62 84.47 28.25C85.01 26.84 86.38 25.87 87.96 25.93C89.95 26 91.5 27.69 91.43 29.7C91.41 30.04 91.2 35.38 87.96 41.84C84.75 48.29 78.27 55.81 66.44 59.73C66.07 59.86 65.69 59.92 65.31 59.92C63.8 59.92 62.39 58.94 61.89 57.41C61.27 55.5 62.29 53.44 64.18 52.81C73.86 49.54 78.63 43.97 81.29 39.01C83.12 35.57 83.82 32.39 84.08 30.7ZM85.02 31.64Q84.42 35.25 82.18 39.48Q80.58 42.45 78.4 44.91Q73.15 50.84 64.5 53.75Q63.28 54.16 62.86 54.98Q62.43 55.83 62.84 57.1Q63.15 58.03 63.78 58.48Q64.39 58.92 65.31 58.92Q65.44 58.92 65.57 58.9Q65.85 58.87 66.12 58.78Q76.01 55.5 82.07 48.77Q85.02 45.5 87.06 41.4Q90.13 35.28 90.42 29.68Q90.43 29.67 90.43 29.66Q90.47 28.32 89.83 27.63Q89.2 26.97 87.92 26.92Q86.65 26.88 85.98 27.49Q85.28 28.12 85.23 29.46L85.23 29.5Q85.22 29.65 85.22 29.8L85.14 31.76L85.02 31.64Z" fill="#000000" fill-opacity="1.000000" fill-rule="evenodd"/>
	<path id="Vector" d="M40.53 59.19C42.17 59.5 44.13 60.02 44.66 60.58C46.06 62.08 46.74 65.17 48.56 65.39C49.83 65.54 50.28 65.51 51.85 64.49C53.4 63.47 51.93 59.51 51.56 57.99C51.03 55.83 52.29 53.45 52.31 53.31C52.32 53.19 53.4 50.89 56.52 51.77C57.61 52.07 56.97 50.03 55.27 49.01C53.24 47.8 51.77 48.37 50.28 49.54C47.42 47.32 42.93 47.76 40.38 48.72C39.97 50.41 39.81 52.04 39.81 53.53C39.81 55.81 40.17 57.79 40.53 59.19ZM47.8 54.4C48.47 53.94 49.38 54.11 49.84 54.79C50.29 55.46 50.12 56.38 49.45 56.84C48.78 57.3 47.87 57.13 47.42 56.45C46.96 55.78 47.14 54.86 47.8 54.4Z" fill="#124C5F" fill-opacity="1.000000" fill-rule="nonzero"/>
	<path id="Vector" d="M50.28 49.54C47.42 47.32 42.93 47.76 40.38 48.72C39.97 50.41 39.81 52.04 39.81 53.53C39.81 55.81 40.17 57.79 40.53 59.19C42.17 59.5 44.13 60.02 44.66 60.58C46.06 62.08 46.74 65.17 48.56 65.39C49.83 65.54 50.28 65.51 51.85 64.49C53.16 63.63 52.32 60.68 51.8 58.86C51.7 58.52 51.62 58.22 51.56 57.99C51.11 56.14 51.96 54.14 52.23 53.51C52.27 53.4 52.3 53.33 52.31 53.31C52.32 53.19 53.4 50.89 56.52 51.77C57.61 52.07 56.97 50.03 55.27 49.01C53.24 47.8 51.77 48.37 50.28 49.54ZM41.35 58.33Q42.45 58.57 43.31 58.84Q43.98 59.05 44.44 59.27Q45.07 59.56 45.39 59.9L45.39 59.9Q45.8 60.34 46.22 61.02Q46.46 61.4 46.89 62.2Q47.23 62.83 47.41 63.11Q47.67 63.56 47.9 63.84Q48.32 64.35 48.68 64.4Q49.16 64.45 49.4 64.46Q49.65 64.46 49.85 64.41Q50.08 64.35 50.4 64.19Q50.75 64.01 51.3 63.65Q52 63.19 50.84 59.14Q50.65 58.48 50.59 58.22Q50.48 57.78 50.44 57.3Q50.42 57.32 50.4 57.34Q50.23 57.52 50.02 57.67Q49.79 57.83 49.54 57.93Q49.33 58.01 49.12 58.05Q48.89 58.1 48.66 58.1Q48.41 58.1 48.17 58.06Q47.93 58.01 47.71 57.92Q47.49 57.83 47.29 57.7Q47.1 57.58 46.94 57.43Q46.74 57.24 46.59 57.01Q46.44 56.79 46.34 56.55Q46.26 56.34 46.21 56.11Q46.17 55.88 46.16 55.65Q46.16 55.41 46.21 55.16Q46.25 54.91 46.35 54.67Q46.43 54.47 46.55 54.28Q46.69 54.08 46.85 53.9Q47.02 53.72 47.24 53.57Q47.45 53.42 47.69 53.32Q47.91 53.24 48.14 53.19Q48.37 53.14 48.6 53.14Q48.84 53.14 49.09 53.18Q49.33 53.23 49.55 53.32Q49.77 53.41 49.97 53.54Q50.16 53.66 50.32 53.81Q50.51 54 50.67 54.23L50.67 54.23Q50.75 54.34 50.81 54.47Q50.9 54.17 51.01 53.87Q51.13 53.54 51.31 53.12Q51.34 53.05 51.35 53.02Q51.44 52.72 51.71 52.32Q51.88 52.09 52.07 51.88Q52.34 51.59 52.66 51.36Q52.94 51.15 53.25 51Q53.77 50.74 54.38 50.64Q54.96 50.53 55.59 50.58Q55.59 50.58 55.58 50.57Q55.33 50.28 55.04 50.06Q54.9 49.96 54.75 49.87Q54.15 49.51 53.62 49.39Q53.23 49.31 52.85 49.35Q52.79 49.36 52.74 49.37Q52.32 49.44 51.87 49.68Q51.43 49.91 50.91 50.33L50.29 50.81L49.67 50.33Q48.8 49.66 47.6 49.3Q46.5 48.97 45.19 48.94Q44 48.91 42.77 49.12Q41.95 49.26 41.23 49.49Q40.81 51.46 40.81 53.53Q40.81 53.94 40.83 54.34Q40.9 56.35 41.35 58.33ZM47.8 54.4C48.47 53.94 49.38 54.11 49.84 54.79C50.29 55.46 50.12 56.38 49.45 56.84C48.78 57.3 47.87 57.13 47.42 56.45C46.96 55.78 47.14 54.86 47.8 54.4Z" fill="#000000" fill-opacity="1.000000" fill-rule="evenodd"/>
	<path id="Vector" d="M38.54 48.67C37.87 48.68 37.24 48.66 36.64 48.61C36.43 48.56 36.21 48.53 35.98 48.54C35.96 48.54 35.95 48.55 35.94 48.55C26.76 47.49 24.26 40.46 13.53 47.76C10.29 46.79 6.43 44.72 3.5 40.3C2.91 39.41 1.72 39.17 0.84 39.77C-0.04 40.37 -0.27 41.58 0.32 42.47C3.11 46.63 6.55 49.07 9.77 50.5C9.74 50.58 9.7 50.67 9.66 50.76C8.83 52.03 8.18 53.69 7.76 55.9C7.7 56.22 5.07 73.2 9.2 73.2C13.33 73.2 14.46 60.36 16.76 58.71C17.09 58.74 23.21 65.24 28.44 64.42C29.66 64.23 31.32 63.46 32.7 62.65L34.96 71.81C35.22 72.84 36.12 73.54 37.14 73.54C37.25 73.54 37.37 73.53 37.48 73.51C38.63 73.34 39.45 72.32 39.39 71.14L38.81 59.73C38.41 58.2 38.01 56.05 38.01 53.53C38.01 52.02 38.16 50.38 38.54 48.67Z" fill="#124C5F" fill-opacity="1.000000" fill-rule="nonzero"/>
	<path id="Vector" d="M36.64 48.61C36.43 48.56 36.21 48.53 35.98 48.54C35.96 48.54 35.95 48.55 35.94 48.55C32.89 48.2 30.58 47.19 28.46 46.26C24.19 44.4 20.7 42.88 13.53 47.76C10.29 46.79 6.43 44.72 3.5 40.3C2.91 39.41 1.72 39.17 0.84 39.77C-0.04 40.37 -0.27 41.58 0.32 42.47C2.85 46.24 5.91 48.6 8.87 50.07C9.17 50.22 9.47 50.37 9.77 50.5C9.75 50.55 9.72 50.62 9.69 50.68C9.68 50.71 9.67 50.74 9.66 50.76C9.66 50.77 9.65 50.77 9.65 50.77C9.53 50.96 9.41 51.16 9.29 51.38C8.64 52.55 8.12 54.03 7.76 55.9C7.7 56.22 5.07 73.2 9.2 73.2C13.33 73.2 14.46 60.36 16.76 58.71C16.82 58.72 17.06 58.93 17.45 59.27C19.24 60.83 24.14 65.09 28.44 64.42C29.4 64.27 30.64 63.76 31.79 63.15C32.1 62.99 32.41 62.82 32.7 62.65L32.95 63.66L34.96 71.81C35.22 72.84 36.12 73.54 37.14 73.54C37.25 73.54 37.37 73.53 37.48 73.51C38.63 73.34 39.45 72.32 39.39 71.14L38.81 59.73C38.41 58.2 38.01 56.05 38.01 53.53C38.01 52.32 38.11 51.02 38.34 49.67C38.4 49.34 38.46 49.01 38.54 48.67C38.19 48.68 37.85 48.67 37.52 48.66C37.22 48.65 36.92 48.64 36.64 48.61ZM37.33 49.66Q36.94 49.64 36.56 49.61L36.47 49.61L36.39 49.58Q36.21 49.54 36.07 49.54Q36.04 49.54 36 49.54L35.91 49.55L35.82 49.54Q32.63 49.17 28.06 47.18Q24.18 45.49 22.08 45.48Q18.66 45.48 14.09 48.58L13.7 48.85L13.24 48.71Q10.03 47.76 7.46 45.9Q4.68 43.9 2.67 40.85Q2.56 40.68 2.4 40.58Q2.26 40.49 2.08 40.46Q1.91 40.42 1.74 40.46Q1.57 40.49 1.41 40.6Q1.02 40.86 0.96 41.18Q0.89 41.51 1.16 41.91Q3.33 45.16 6.29 47.34Q8.09 48.66 10.18 49.58L11.11 50L10.68 50.92Q10.66 50.97 10.61 51.08Q10.59 51.14 10.57 51.16L10.54 51.24L10.49 51.31Q9.31 53.12 8.74 56.09Q8.08 59.7 7.91 64.7Q7.79 68.32 8.21 70.34Q8.58 72.13 9.15 72.2Q9.18 72.2 9.2 72.2Q10.94 72.2 13.35 64.2Q14.99 58.75 16.18 57.9L16.48 57.68L16.85 57.72Q17.23 57.75 18.11 58.51Q24.45 64.03 28.28 63.43Q29.81 63.19 32.19 61.78L33.35 61.1L35.93 71.57Q36.06 72.07 36.37 72.31Q36.67 72.54 37.14 72.54Q37.24 72.54 37.33 72.53Q37.88 72.44 38.15 72.12Q38.42 71.79 38.39 71.19L37.81 59.88Q37.33 57.97 37.13 56.04Q37.01 54.79 37.01 53.53Q37.01 51.56 37.33 49.66Z" fill="#000000" fill-opacity="1.000000" fill-rule="evenodd"/>
	<path id="Vector" d="M58.62 71.09L58.05 71.09L56.89 67.45L43.9 67.45L42.74 71.09L42.18 71.09C41.72 71.09 41.35 71.47 41.35 71.93C41.35 72.4 41.72 72.77 42.18 72.77L58.62 72.77C59.08 72.77 59.45 72.4 59.45 71.93C59.45 71.47 59.08 71.09 58.62 71.09Z" fill="#124C5F" fill-opacity="1.000000" fill-rule="nonzero"/>
	<path id="Vector" d="M58.05 71.09L56.89 67.45L43.9 67.45L42.74 71.09L42.18 71.09C41.72 71.09 41.35 71.47 41.35 71.93C41.35 72.4 41.72 72.77 42.18 72.77L58.62 72.77C59.08 72.77 59.45 72.4 59.45 71.93C59.45 71.47 59.08 71.09 58.62 71.09L58.05 71.09ZM44.63 68.45L43.58 71.77L57.22 71.77L57.1 71.4L56.16 68.45L44.63 68.45Z" fill="#000000" fill-opacity="1.000000" fill-rule="evenodd"/>
</svg>
