<svg width="58.000000" height="58.000000" viewBox="0 0 58 58" fill="none" xmlns="http://www.w3.org/2000/svg" xmlns:xlink="http://www.w3.org/1999/xlink">
	<desc>
			Created with Pixso.
	</desc>
	<defs>
		<clipPath id="clip27_1489">
			<rect id="noun_instagram_3350460 1" rx="-0.500000" width="28.000000" height="35.000000" transform="translate(15.500000 14.500000)" fill="white" fill-opacity="0"/>
		</clipPath>
	</defs>
	<circle id="Ellipse 6" cx="29.000000" cy="29.000000" r="29.000000" fill="#C4C4C4" fill-opacity="1.000000"/>
	<rect id="noun_instagram_3350460 1" rx="-0.500000" width="28.000000" height="35.000000" transform="translate(15.500000 14.500000)" fill="#FFFFFF" fill-opacity="0"/>
	<g clip-path="url(#clip27_1489)">
		<path id="Vector" d="M39.16 14L19.83 14C18.55 14 17.32 14.5 16.41 15.4C15.5 16.3 15 17.52 15 18.79L15 38C15 39.27 15.5 40.49 16.41 41.39C17.32 42.29 18.55 42.8 19.83 42.8L39.16 42.8C40.44 42.8 41.67 42.29 42.58 41.39C43.49 40.49 44 39.27 44 38L44 18.79C44 17.52 43.49 16.3 42.58 15.4C41.67 14.5 40.44 14 39.16 14L39.16 14ZM41.58 38C41.58 38.63 41.32 39.24 40.87 39.69C40.42 40.14 39.8 40.4 39.16 40.4L19.83 40.4C19.19 40.4 18.57 40.14 18.12 39.69C17.67 39.24 17.41 38.63 17.41 38L17.41 18.79C17.41 18.16 17.67 17.55 18.12 17.1C18.57 16.65 19.19 16.4 19.83 16.4L39.16 16.4C39.8 16.4 40.42 16.65 40.87 17.1C41.32 17.55 41.58 18.16 41.58 18.79L41.58 38Z" fill="#5B5B5B" fill-opacity="1.000000" fill-rule="nonzero"/>
		<path id="Vector" d="M29.5 21.2C28.06 21.2 26.66 21.62 25.47 22.41C24.27 23.2 23.35 24.32 22.8 25.64C22.25 26.96 22.1 28.4 22.38 29.8C22.66 31.2 23.35 32.48 24.37 33.49C25.38 34.49 26.67 35.18 28.08 35.46C29.49 35.73 30.94 35.59 32.27 35.05C33.59 34.5 34.73 33.58 35.52 32.4C36.32 31.21 36.75 29.82 36.75 28.4C36.75 26.49 35.98 24.65 34.62 23.3C33.26 21.95 31.42 21.2 29.5 21.2ZM29.5 33.2C28.54 33.2 27.6 32.91 26.81 32.39C26.01 31.86 25.4 31.11 25.03 30.23C24.66 29.36 24.57 28.39 24.75 27.46C24.94 26.53 25.4 25.67 26.08 25C26.75 24.33 27.61 23.87 28.55 23.69C29.49 23.5 30.46 23.6 31.34 23.96C32.23 24.32 32.98 24.94 33.51 25.73C34.04 26.52 34.33 27.45 34.33 28.4C34.33 29.67 33.82 30.89 32.91 31.79C32.01 32.69 30.78 33.2 29.5 33.2Z" fill="#5B5B5B" fill-opacity="1.000000" fill-rule="nonzero"/>
		<path id="Vector" d="M39.16 20.59C39.16 21.59 38.35 22.39 37.35 22.39C36.35 22.39 35.54 21.59 35.54 20.59C35.54 19.6 36.35 18.79 37.35 18.79C38.35 18.79 39.16 19.6 39.16 20.59Z" fill="#5B5B5B" fill-opacity="1.000000" fill-rule="evenodd"/>
		<path id="Created by Mas Dhimas" d="M18.37 57.15L17.9 57.15Q17.83 56.86 17.66 56.68Q17.61 56.62 17.54 56.58Q17.5 56.55 17.45 56.52Q17.21 56.39 16.9 56.39Q16.58 56.39 16.35 56.51C16.2 56.59 16.07 56.7 15.97 56.83C15.87 56.97 15.8 57.12 15.76 57.29Q15.69 57.55 15.69 57.83Q15.69 58.14 15.76 58.41Q15.83 58.68 15.97 58.89C16.07 59.02 16.2 59.13 16.35 59.21Q16.58 59.33 16.9 59.33C17.06 59.33 17.2 59.3 17.32 59.25C17.44 59.2 17.54 59.13 17.63 59.04C17.72 58.94 17.79 58.83 17.84 58.71C17.89 58.58 17.92 58.44 17.93 58.3L18.41 58.3C18.36 58.75 18.2 59.1 17.94 59.35Q17.89 59.39 17.84 59.43Q17.47 59.72 16.86 59.72Q16.45 59.72 16.14 59.58Q15.89 59.47 15.71 59.29Q15.66 59.24 15.62 59.19C15.48 59.02 15.38 58.82 15.31 58.6Q15.21 58.26 15.21 57.87Q15.21 57.48 15.32 57.14Q15.43 56.79 15.64 56.54C15.78 56.37 15.96 56.23 16.17 56.14Q16.49 55.99 16.9 55.99Q17.18 55.99 17.43 56.06C17.6 56.11 17.75 56.19 17.87 56.28C18.01 56.38 18.11 56.5 18.2 56.65C18.29 56.79 18.34 56.96 18.37 57.15ZM32.44 56.07L32.44 59.64L32.02 59.64L32.02 59.29L32.01 59.29C31.94 59.44 31.83 59.54 31.68 59.6C31.53 59.67 31.36 59.7 31.18 59.7Q30.88 59.7 30.66 59.59C30.51 59.51 30.39 59.42 30.29 59.29C30.19 59.17 30.12 59.03 30.07 58.86C30.02 58.7 29.99 58.53 29.99 58.34Q29.99 58.07 30.06 57.82C30.11 57.66 30.19 57.52 30.28 57.4C30.38 57.27 30.51 57.18 30.65 57.11C30.8 57.03 30.98 57 31.17 57Q31.27 57 31.39 57.02C31.47 57.03 31.54 57.05 31.62 57.09Q31.63 57.09 31.64 57.1Q31.74 57.14 31.83 57.21C31.9 57.26 31.96 57.33 32.01 57.4L32.02 57.4L32.02 56.07L32.44 56.07ZM34.5 59.64L34.5 56.07L34.93 56.07L34.93 57.41L34.94 57.41C35.01 57.26 35.12 57.16 35.27 57.1C35.42 57.03 35.58 57 35.76 57C35.96 57 36.14 57.03 36.28 57.11C36.43 57.18 36.56 57.28 36.65 57.41C36.75 57.53 36.83 57.67 36.88 57.84C36.93 58 36.95 58.17 36.95 58.36Q36.95 58.63 36.88 58.88C36.83 59.04 36.76 59.18 36.66 59.31C36.56 59.43 36.44 59.52 36.29 59.59C36.14 59.66 35.97 59.7 35.77 59.7Q35.68 59.7 35.56 59.68C35.48 59.66 35.41 59.64 35.33 59.61C35.25 59.58 35.18 59.54 35.11 59.49C35.04 59.44 34.99 59.37 34.94 59.3L34.93 59.3L34.93 59.64L34.5 59.64ZM41.43 59.64L41.43 56.07L42.08 56.07L43.2 59.07L44.33 56.07L44.98 56.07L44.98 59.64L44.53 59.64L44.53 56.67L44.52 56.67L43.41 59.64L43 59.64L41.89 56.67L41.88 56.67L41.88 59.64L41.43 59.64ZM52.35 59.64L52.35 56.07L53.57 56.07C54.12 56.07 54.55 56.21 54.84 56.49C55.14 56.77 55.29 57.2 55.29 57.77C55.29 58.07 55.25 58.34 55.19 58.57Q55.09 58.92 54.88 59.16C54.74 59.31 54.56 59.43 54.34 59.52C54.13 59.6 53.87 59.64 53.57 59.64L52.35 59.64ZM55.8 59.64L55.8 56.07L56.22 56.07L56.22 57.44L56.23 57.44C56.27 57.36 56.31 57.29 56.37 57.24C56.43 57.18 56.5 57.14 56.57 57.1C56.65 57.07 56.73 57.04 56.81 57.02C56.89 57.01 56.97 57 57.05 57Q57.3 57 57.47 57.07C57.59 57.11 57.68 57.18 57.75 57.26C57.82 57.35 57.87 57.45 57.89 57.56Q57.94 57.73 57.94 57.94L57.94 59.64L57.51 59.64L57.51 57.89C57.51 57.73 57.47 57.61 57.37 57.51C57.28 57.42 57.15 57.37 56.99 57.37C56.86 57.37 56.75 57.39 56.65 57.43C56.56 57.47 56.48 57.53 56.41 57.6C56.35 57.68 56.3 57.76 56.27 57.86C56.24 57.96 56.22 58.07 56.22 58.18L56.22 59.64L55.8 59.64ZM59.03 56.07L59.03 56.59L58.6 56.59L58.6 56.07L59.03 56.07ZM26.46 56.28L26.46 57.06L26.98 57.06L26.98 57.43L26.46 57.43L26.46 59.04C26.46 59.09 26.47 59.13 26.47 59.16C26.48 59.19 26.5 59.21 26.52 59.23C26.55 59.24 26.58 59.26 26.62 59.26C26.66 59.27 26.72 59.27 26.78 59.27L26.98 59.27L26.98 59.64L26.65 59.64C26.54 59.64 26.45 59.64 26.37 59.62C26.29 59.61 26.23 59.58 26.18 59.54C26.13 59.5 26.1 59.44 26.07 59.37C26.05 59.29 26.04 59.2 26.04 59.08L26.04 57.43L25.6 57.43L25.6 57.06L26.04 57.06L26.04 56.28L26.46 56.28ZM52.82 56.47L52.82 59.24L53.61 59.24C53.67 59.24 53.73 59.24 53.81 59.23C53.89 59.22 53.98 59.2 54.07 59.17C54.16 59.14 54.25 59.09 54.33 59.03C54.42 58.97 54.5 58.89 54.57 58.79C54.64 58.68 54.7 58.56 54.74 58.4C54.79 58.25 54.81 58.06 54.81 57.84C54.81 57.62 54.79 57.43 54.75 57.27C54.71 57.1 54.64 56.95 54.54 56.84C54.45 56.72 54.33 56.63 54.18 56.57C54.03 56.5 53.84 56.47 53.62 56.47L52.82 56.47ZM18.91 59.64L18.91 57.06L19.31 57.06L19.31 57.6L19.32 57.6C19.42 57.39 19.55 57.24 19.7 57.14C19.85 57.04 20.04 56.99 20.27 57L20.27 57.45Q20.01 57.45 19.83 57.52C19.71 57.56 19.62 57.63 19.54 57.72C19.47 57.81 19.42 57.92 19.38 58.05C19.35 58.18 19.33 58.33 19.33 58.49L19.33 59.64L18.91 59.64ZM22.29 58.82L22.71 58.82C22.65 59.11 22.52 59.33 22.33 59.48C22.14 59.62 21.89 59.7 21.6 59.7Q21.29 59.7 21.06 59.6C20.91 59.53 20.78 59.44 20.68 59.32C20.58 59.2 20.5 59.05 20.45 58.89C20.4 58.72 20.37 58.54 20.36 58.34Q20.36 58.05 20.45 57.8C20.51 57.64 20.59 57.5 20.7 57.38C20.81 57.26 20.94 57.16 21.09 57.1C21.24 57.03 21.4 57 21.58 57Q21.92 57 22.15 57.14C22.3 57.24 22.42 57.36 22.51 57.5C22.6 57.65 22.67 57.81 22.7 57.98C22.74 58.16 22.75 58.32 22.75 58.48L20.81 58.48Q20.81 58.65 20.85 58.8C20.88 58.9 20.93 58.99 21 59.07C21.06 59.15 21.15 59.21 21.25 59.26C21.35 59.3 21.48 59.33 21.62 59.33C21.8 59.33 21.94 59.29 22.06 59.2C22.17 59.12 22.25 58.99 22.29 58.82ZM25.48 59.3L25.48 59.63C25.4 59.68 25.3 59.7 25.17 59.7C25.06 59.7 24.97 59.67 24.91 59.61C24.84 59.54 24.81 59.44 24.81 59.3C24.69 59.44 24.56 59.54 24.4 59.61C24.25 59.67 24.08 59.7 23.9 59.7C23.78 59.7 23.67 59.68 23.57 59.66C23.47 59.63 23.38 59.59 23.3 59.54C23.22 59.48 23.16 59.4 23.11 59.31Q23.05 59.17 23.05 58.98C23.05 58.83 23.07 58.71 23.12 58.62C23.17 58.52 23.24 58.45 23.32 58.39C23.4 58.33 23.49 58.29 23.6 58.26C23.7 58.23 23.81 58.2 23.92 58.18C24.04 58.16 24.15 58.14 24.25 58.13C24.36 58.12 24.45 58.1 24.53 58.08Q24.65 58.05 24.72 57.99C24.77 57.94 24.79 57.88 24.79 57.8Q24.79 57.66 24.74 57.58C24.7 57.52 24.66 57.48 24.6 57.45C24.55 57.42 24.49 57.4 24.42 57.39C24.35 57.38 24.28 57.37 24.22 57.37C24.04 57.37 23.89 57.41 23.77 57.48C23.65 57.54 23.58 57.67 23.57 57.86L23.15 57.86C23.15 57.7 23.19 57.57 23.25 57.46C23.31 57.35 23.39 57.26 23.49 57.19C23.59 57.12 23.7 57.07 23.83 57.04C23.96 57.01 24.1 57 24.24 57C24.36 57 24.47 57.01 24.59 57.02C24.7 57.04 24.81 57.07 24.9 57.13C24.99 57.18 25.07 57.25 25.13 57.34C25.18 57.44 25.21 57.56 25.21 57.71L25.21 59.04Q25.21 59.19 25.23 59.26C25.24 59.3 25.28 59.33 25.35 59.33C25.38 59.33 25.43 59.32 25.48 59.3ZM29.23 58.82L29.65 58.82C29.6 59.11 29.47 59.33 29.28 59.48C29.09 59.62 28.84 59.7 28.55 59.7C28.34 59.7 28.16 59.66 28.01 59.6C27.86 59.53 27.73 59.44 27.63 59.32C27.53 59.2 27.45 59.05 27.39 58.89C27.34 58.72 27.32 58.54 27.31 58.34Q27.31 58.05 27.4 57.8C27.46 57.64 27.54 57.5 27.65 57.38Q27.74 57.28 27.85 57.2Q27.94 57.14 28.03 57.1C28.18 57.03 28.35 57 28.52 57C28.75 57 28.94 57.05 29.09 57.14C29.25 57.24 29.37 57.36 29.46 57.5C29.55 57.65 29.62 57.81 29.65 57.98C29.69 58.16 29.7 58.32 29.69 58.48L27.76 58.48Q27.75 58.65 27.8 58.8C27.83 58.9 27.88 58.99 27.94 59.07C28.01 59.15 28.1 59.21 28.2 59.26C28.3 59.3 28.42 59.33 28.56 59.33C28.74 59.33 28.89 59.29 29 59.2C29.12 59.12 29.2 58.99 29.23 58.82ZM47.99 59.3L47.99 59.63C47.92 59.68 47.82 59.7 47.69 59.7Q47.54 59.7 47.45 59.63Q47.43 59.62 47.42 59.61C47.36 59.54 47.33 59.44 47.33 59.3C47.21 59.44 47.07 59.54 46.92 59.61C46.76 59.67 46.6 59.7 46.42 59.7C46.3 59.7 46.19 59.68 46.09 59.66C45.98 59.63 45.89 59.59 45.81 59.54C45.73 59.48 45.67 59.4 45.63 59.31C45.58 59.22 45.56 59.11 45.56 58.98C45.56 58.83 45.59 58.71 45.64 58.62Q45.7 58.5 45.8 58.42Q45.81 58.4 45.83 58.39C45.91 58.33 46.01 58.29 46.11 58.26C46.22 58.23 46.33 58.2 46.44 58.18C46.55 58.16 46.66 58.14 46.77 58.13C46.87 58.12 46.97 58.1 47.05 58.08C47.13 58.06 47.19 58.03 47.24 57.99C47.28 57.94 47.31 57.88 47.31 57.8Q47.31 57.66 47.25 57.58C47.22 57.52 47.17 57.48 47.12 57.45C47.06 57.42 47 57.4 46.93 57.39C46.86 57.38 46.8 57.37 46.73 57.37C46.55 57.37 46.4 57.41 46.28 57.48C46.16 57.54 46.1 57.67 46.09 57.86L45.66 57.86Q45.67 57.62 45.76 57.46C45.82 57.35 45.9 57.26 46 57.19C46.1 57.12 46.22 57.07 46.35 57.04C46.48 57.01 46.61 57 46.76 57C46.87 57 46.99 57.01 47.1 57.02Q47.28 57.05 47.42 57.13Q47.47 57.16 47.52 57.2Q47.59 57.26 47.64 57.34C47.7 57.44 47.73 57.56 47.73 57.71L47.73 59.04C47.73 59.14 47.73 59.21 47.74 59.26C47.75 59.3 47.79 59.33 47.86 59.33C47.9 59.33 47.94 59.32 47.99 59.3ZM48.22 58.83L48.65 58.83C48.65 58.92 48.67 59 48.71 59.07C48.75 59.13 48.8 59.18 48.87 59.22Q48.97 59.28 49.09 59.3C49.17 59.32 49.25 59.33 49.34 59.33Q49.44 59.33 49.55 59.31C49.62 59.3 49.69 59.28 49.75 59.26C49.81 59.23 49.87 59.19 49.91 59.14Q49.91 59.14 49.92 59.13Q49.97 59.05 49.97 58.94C49.97 58.83 49.92 58.75 49.84 58.69C49.76 58.64 49.65 58.59 49.53 58.56C49.4 58.52 49.27 58.49 49.12 58.46C48.97 58.43 48.84 58.39 48.71 58.34C48.59 58.29 48.48 58.22 48.4 58.12C48.32 58.03 48.28 57.9 48.28 57.73C48.28 57.6 48.3 57.49 48.36 57.4Q48.43 57.3 48.51 57.22Q48.55 57.2 48.59 57.17C48.68 57.11 48.78 57.07 48.9 57.04C49.01 57.01 49.13 57 49.24 57C49.39 57 49.52 57.01 49.65 57.04C49.77 57.06 49.88 57.1 49.97 57.17C50.07 57.23 50.14 57.31 50.2 57.42C50.26 57.52 50.29 57.65 50.3 57.81L49.88 57.81C49.87 57.72 49.85 57.66 49.81 57.6C49.77 57.55 49.73 57.5 49.67 57.47C49.61 57.43 49.55 57.41 49.48 57.4C49.41 57.38 49.35 57.37 49.28 57.37C49.21 57.37 49.15 57.38 49.08 57.39C49.02 57.4 48.96 57.42 48.91 57.44C48.85 57.47 48.81 57.5 48.78 57.54C48.74 57.58 48.73 57.64 48.73 57.7C48.73 57.78 48.75 57.84 48.8 57.89C48.85 57.93 48.92 57.97 49 58.01C49.08 58.04 49.17 58.06 49.27 58.09C49.37 58.11 49.47 58.13 49.57 58.15C49.68 58.18 49.78 58.2 49.88 58.24Q50.04 58.29 50.15 58.37C50.23 58.43 50.29 58.49 50.34 58.58C50.39 58.66 50.42 58.76 50.42 58.89C50.42 59.04 50.38 59.17 50.32 59.28C50.25 59.38 50.17 59.46 50.06 59.53C49.96 59.59 49.84 59.63 49.71 59.66C49.58 59.68 49.45 59.7 49.32 59.7C49.17 59.7 49.04 59.68 48.91 59.65C48.78 59.62 48.66 59.57 48.56 59.51C48.46 59.44 48.38 59.35 48.32 59.24C48.26 59.12 48.23 58.99 48.22 58.83ZM59.69 59.64L59.69 57.06L60.09 57.06L60.09 57.44L60.1 57.44C60.29 57.14 60.57 57 60.93 57Q61.15 57 61.32 57.08Q61.35 57.09 61.37 57.1C61.5 57.16 61.59 57.28 61.64 57.44C61.73 57.3 61.84 57.19 61.98 57.11C62.12 57.04 62.28 57 62.45 57C62.58 57 62.7 57.01 62.8 57.04C62.91 57.07 63 57.11 63.07 57.17C63.15 57.23 63.21 57.31 63.25 57.41C63.29 57.5 63.31 57.61 63.31 57.75L63.31 59.64L62.89 59.64L62.89 57.95C62.89 57.87 62.88 57.79 62.87 57.72C62.85 57.65 62.83 57.59 62.79 57.54C62.75 57.49 62.7 57.45 62.64 57.42C62.57 57.39 62.49 57.37 62.39 57.37C62.18 57.37 62.01 57.43 61.89 57.55C61.77 57.67 61.71 57.83 61.71 58.03L61.71 59.64L61.29 59.64L61.29 57.95C61.29 57.86 61.28 57.79 61.26 57.72C61.25 57.65 61.22 57.59 61.19 57.54C61.15 57.48 61.1 57.44 61.04 57.42C60.98 57.39 60.9 57.37 60.8 57.37Q60.62 57.37 60.48 57.45C60.39 57.5 60.32 57.56 60.27 57.63C60.21 57.7 60.17 57.77 60.15 57.85C60.12 57.92 60.11 57.98 60.11 58.03L60.11 59.64L59.69 59.64ZM66.24 59.3L66.24 59.63C66.16 59.68 66.06 59.7 65.93 59.7Q65.79 59.7 65.69 59.63Q65.68 59.62 65.67 59.61C65.6 59.54 65.57 59.44 65.57 59.3C65.46 59.44 65.32 59.54 65.16 59.61C65.01 59.67 64.84 59.7 64.66 59.7C64.55 59.7 64.44 59.68 64.33 59.66Q64.18 59.62 64.06 59.54L64.06 59.54C63.98 59.48 63.92 59.4 63.87 59.31C63.83 59.22 63.81 59.11 63.81 58.98C63.81 58.83 63.83 58.71 63.88 58.62C63.93 58.52 64 58.45 64.08 58.39C64.16 58.33 64.25 58.29 64.36 58.26C64.46 58.23 64.57 58.2 64.68 58.18C64.8 58.16 64.91 58.14 65.01 58.13C65.12 58.12 65.21 58.1 65.29 58.08C65.37 58.06 65.44 58.03 65.48 57.99C65.53 57.94 65.55 57.88 65.55 57.8Q65.55 57.66 65.5 57.58C65.46 57.52 65.42 57.48 65.36 57.45C65.31 57.42 65.25 57.4 65.18 57.39C65.11 57.38 65.04 57.37 64.98 57.37C64.8 57.37 64.65 57.41 64.53 57.48C64.41 57.54 64.34 57.67 64.33 57.86L63.91 57.86C63.91 57.7 63.95 57.57 64.01 57.46C64.07 57.35 64.15 57.26 64.25 57.19C64.35 57.12 64.46 57.07 64.59 57.04C64.72 57.01 64.86 57 65 57C65.12 57 65.23 57.01 65.35 57.02Q65.52 57.05 65.66 57.13Q65.72 57.16 65.76 57.2Q65.84 57.26 65.89 57.34C65.94 57.44 65.97 57.56 65.97 57.71L65.97 59.04C65.97 59.14 65.98 59.21 65.99 59.26C66 59.3 66.04 59.33 66.11 59.33C66.14 59.33 66.19 59.32 66.24 59.3ZM66.47 58.83L66.89 58.83C66.9 58.92 66.92 59 66.96 59.07C67 59.13 67.05 59.18 67.11 59.22Q67.21 59.28 67.33 59.3C67.42 59.32 67.5 59.33 67.59 59.33Q67.69 59.33 67.8 59.31C67.87 59.3 67.94 59.28 68 59.26C68.06 59.23 68.11 59.19 68.15 59.14Q68.16 59.14 68.16 59.13Q68.21 59.05 68.21 58.94C68.21 58.83 68.17 58.75 68.09 58.69C68.01 58.64 67.9 58.59 67.77 58.56C67.65 58.52 67.51 58.49 67.37 58.46C67.22 58.43 67.08 58.39 66.96 58.34C66.83 58.29 66.73 58.22 66.65 58.12C66.57 58.03 66.52 57.9 66.52 57.73C66.52 57.6 66.55 57.49 66.61 57.4Q66.67 57.3 66.76 57.22Q66.8 57.2 66.83 57.17C66.93 57.11 67.03 57.07 67.14 57.04C67.26 57.01 67.37 57 67.49 57C67.64 57 67.77 57.01 67.89 57.04C68.02 57.06 68.12 57.1 68.22 57.17C68.32 57.23 68.39 57.31 68.45 57.42C68.51 57.52 68.54 57.65 68.55 57.81L68.12 57.81C68.12 57.72 68.1 57.66 68.06 57.6C68.02 57.55 67.98 57.5 67.92 57.47C67.86 57.43 67.8 57.41 67.73 57.4C67.66 57.38 67.59 57.37 67.52 57.37C67.46 57.37 67.4 57.38 67.33 57.39C67.26 57.4 67.21 57.42 67.15 57.44C67.1 57.47 67.06 57.5 67.02 57.54C66.99 57.58 66.97 57.64 66.97 57.7C66.97 57.78 67 57.84 67.05 57.89C67.1 57.93 67.17 57.97 67.25 58.01C67.33 58.04 67.42 58.06 67.52 58.09C67.62 58.11 67.72 58.13 67.82 58.15C67.93 58.18 68.03 58.2 68.13 58.24Q68.28 58.29 68.4 58.37C68.48 58.43 68.54 58.49 68.59 58.58C68.64 58.66 68.66 58.76 68.66 58.89C68.66 59.04 68.63 59.17 68.56 59.28C68.5 59.38 68.42 59.46 68.31 59.53C68.21 59.59 68.09 59.63 67.95 59.66C67.82 59.68 67.69 59.7 67.56 59.7C67.42 59.7 67.28 59.68 67.15 59.65C67.02 59.62 66.91 59.57 66.81 59.51C66.71 59.44 66.63 59.35 66.57 59.24C66.51 59.12 66.48 58.99 66.47 58.83ZM39.59 57.06L38.47 59.98C38.42 60.11 38.37 60.22 38.32 60.3C38.27 60.39 38.22 60.46 38.16 60.51C38.1 60.57 38.04 60.61 37.97 60.63C37.9 60.66 37.82 60.67 37.72 60.67C37.67 60.67 37.62 60.67 37.57 60.66C37.52 60.66 37.47 60.64 37.42 60.63L37.42 60.24L37.54 60.28C37.59 60.29 37.63 60.3 37.67 60.3Q37.8 60.3 37.88 60.24C37.94 60.2 37.98 60.14 38.02 60.06L38.2 59.63L37.17 57.06L37.65 57.06L38.41 59.17L38.42 59.17L39.14 57.06L39.59 57.06ZM58.6 59.64L58.6 57.06L59.03 57.06L59.03 59.64L58.6 59.64ZM20.81 58.1L22.3 58.1C22.29 58 22.27 57.91 22.23 57.82C22.19 57.73 22.14 57.65 22.07 57.59C22.01 57.52 21.93 57.47 21.84 57.43C21.75 57.39 21.66 57.37 21.55 57.37C21.44 57.37 21.34 57.39 21.25 57.43C21.16 57.47 21.09 57.52 21.03 57.59C20.96 57.65 20.91 57.73 20.88 57.82C20.84 57.91 20.82 58 20.81 58.1ZM27.76 58.1L29.24 58.1C29.24 58 29.21 57.91 29.17 57.82C29.14 57.73 29.09 57.65 29.02 57.59C28.96 57.52 28.88 57.47 28.79 57.43C28.7 57.39 28.61 57.37 28.5 57.37C28.39 57.37 28.29 57.39 28.2 57.43C28.11 57.47 28.04 57.52 27.97 57.59C27.91 57.65 27.86 57.73 27.82 57.82C27.79 57.91 27.77 58 27.76 58.1ZM30.48 58C30.46 58.12 30.44 58.25 30.44 58.37Q30.44 58.45 30.45 58.53Q30.46 58.63 30.49 58.73C30.52 58.84 30.57 58.94 30.63 59.03C30.7 59.12 30.78 59.19 30.88 59.25C30.99 59.3 31.11 59.33 31.24 59.33C31.39 59.33 31.51 59.3 31.61 59.24C31.71 59.19 31.79 59.11 31.85 59.02C31.92 58.93 31.96 58.82 31.99 58.71C32.02 58.59 32.03 58.47 32.03 58.35C32.03 58.23 32.02 58.1 31.99 57.99C31.96 57.87 31.91 57.76 31.84 57.67C31.78 57.58 31.7 57.51 31.59 57.46Q31.44 57.37 31.22 57.37Q31 57.37 30.85 57.46C30.75 57.51 30.67 57.59 30.61 57.68C30.55 57.78 30.51 57.88 30.48 58ZM36.46 58.7C36.49 58.58 36.5 58.45 36.5 58.33Q36.5 58.2 36.48 58.08Q36.47 58.03 36.45 57.98C36.42 57.86 36.38 57.76 36.31 57.67C36.25 57.58 36.16 57.51 36.06 57.45C35.96 57.4 35.84 57.37 35.7 57.37C35.56 57.37 35.44 57.4 35.34 57.46C35.24 57.51 35.16 57.59 35.09 57.68C35.03 57.77 34.98 57.88 34.95 57.99C34.93 58.11 34.91 58.23 34.91 58.35Q34.91 58.52 34.95 58.68Q34.96 58.7 34.96 58.72C34.99 58.83 35.04 58.94 35.1 59.03C35.17 59.12 35.25 59.19 35.35 59.25Q35.51 59.33 35.73 59.33C35.88 59.33 36 59.3 36.09 59.24C36.19 59.19 36.27 59.11 36.33 59.02C36.39 58.92 36.44 58.82 36.46 58.7ZM24.79 58.74L24.79 58.31C24.73 58.35 24.66 58.38 24.58 58.4C24.49 58.41 24.4 58.43 24.3 58.44C24.21 58.45 24.11 58.47 24.02 58.48C23.92 58.5 23.83 58.52 23.76 58.55C23.68 58.59 23.62 58.63 23.57 58.7C23.52 58.76 23.5 58.84 23.5 58.95C23.5 59.02 23.51 59.08 23.54 59.13C23.57 59.17 23.6 59.21 23.65 59.24C23.69 59.27 23.75 59.29 23.81 59.31C23.87 59.32 23.93 59.33 24 59.33Q24.21 59.33 24.36 59.27C24.46 59.23 24.54 59.18 24.6 59.13C24.66 59.07 24.71 59 24.74 58.94C24.77 58.87 24.79 58.8 24.79 58.74ZM47.3 58.74L47.3 58.31C47.25 58.35 47.18 58.38 47.09 58.4C47 58.41 46.91 58.43 46.82 58.44C46.72 58.45 46.63 58.47 46.53 58.48C46.43 58.5 46.35 58.52 46.27 58.55C46.19 58.59 46.13 58.63 46.08 58.7C46.03 58.76 46.01 58.84 46.01 58.95C46.01 59.02 46.02 59.08 46.05 59.13C46.08 59.17 46.12 59.21 46.16 59.24C46.21 59.27 46.26 59.29 46.32 59.31Q46.42 59.33 46.51 59.33L46.51 59.33C46.65 59.33 46.77 59.31 46.87 59.27C46.97 59.23 47.05 59.18 47.12 59.13C47.18 59.07 47.23 59 47.26 58.94Q47.3 58.83 47.3 58.74ZM65.55 58.74L65.55 58.31C65.49 58.35 65.42 58.38 65.34 58.4C65.25 58.41 65.16 58.43 65.06 58.44C64.97 58.45 64.87 58.47 64.78 58.48C64.68 58.5 64.59 58.52 64.52 58.55C64.44 58.59 64.38 58.63 64.33 58.7C64.28 58.76 64.26 58.84 64.26 58.95C64.26 59.02 64.27 59.08 64.3 59.13C64.33 59.17 64.36 59.21 64.41 59.24C64.45 59.27 64.51 59.29 64.57 59.31C64.63 59.32 64.69 59.33 64.76 59.33C64.9 59.33 65.02 59.31 65.12 59.27C65.22 59.23 65.3 59.18 65.36 59.13C65.43 59.07 65.47 59 65.5 58.94Q65.55 58.83 65.55 58.74Z" fill="#5B5B5B" fill-opacity="1.000000" fill-rule="evenodd"/>
		<path id="from the Noun Project" d="M15.49 65.64L15.49 63.43L15.06 63.43L15.06 63.06L15.49 63.06L15.49 62.67Q15.49 62.4 15.62 62.24Q15.65 62.22 15.67 62.2C15.79 62.09 15.97 62.03 16.2 62.03C16.25 62.03 16.29 62.04 16.34 62.04C16.39 62.05 16.44 62.06 16.48 62.07L16.48 62.44C16.44 62.43 16.4 62.42 16.36 62.42C16.32 62.41 16.28 62.41 16.24 62.41Q16.09 62.41 16 62.47C15.94 62.51 15.92 62.58 15.92 62.7L15.92 63.06L16.42 63.06L16.42 63.43L15.92 63.43L15.92 65.64L15.49 65.64ZM28.47 65.64L28.47 62.07L28.9 62.07L28.9 63.44L28.91 63.44C28.94 63.36 28.99 63.29 29.05 63.24C29.11 63.18 29.18 63.14 29.25 63.1C29.33 63.07 29.4 63.04 29.48 63.02C29.57 63.01 29.65 63 29.72 63C29.89 63 30.04 63.02 30.15 63.07C30.26 63.11 30.35 63.18 30.42 63.26C30.49 63.35 30.54 63.45 30.57 63.56C30.6 63.68 30.61 63.8 30.61 63.94L30.61 65.64L30.19 65.64L30.19 63.89Q30.19 63.7 30.1 63.57Q30.08 63.54 30.05 63.51C29.96 63.42 29.83 63.37 29.66 63.37C29.53 63.37 29.42 63.39 29.32 63.43C29.23 63.47 29.15 63.53 29.09 63.6C29.03 63.68 28.98 63.76 28.94 63.86C28.91 63.96 28.9 64.07 28.9 64.18L28.9 65.64L28.47 65.64ZM35.39 65.64L35.39 62.07L35.9 62.07L37.78 64.97L37.79 64.97L37.79 62.07L38.24 62.07L38.24 65.64L37.72 65.64L35.85 62.78L35.84 62.78L35.84 65.64L35.39 65.64ZM48.83 65.64L48.83 62.07L50.39 62.07C50.75 62.07 51.02 62.17 51.21 62.35C51.39 62.54 51.49 62.79 51.49 63.13C51.49 63.46 51.39 63.72 51.21 63.91C51.02 64.09 50.75 64.19 50.39 64.18L49.3 64.18L49.3 65.64L48.83 65.64ZM56.9 62.07L56.9 62.59L56.47 62.59L56.47 62.07L56.9 62.07ZM27.49 62.28L27.49 63.06L28 63.06L28 63.43L27.49 63.43L27.49 65.04C27.49 65.09 27.49 65.13 27.5 65.16C27.51 65.19 27.52 65.21 27.55 65.23C27.57 65.24 27.6 65.26 27.64 65.26C27.69 65.27 27.74 65.27 27.81 65.27L28 65.27L28 65.64L27.68 65.64C27.57 65.64 27.47 65.64 27.39 65.62C27.32 65.61 27.25 65.58 27.2 65.54C27.16 65.5 27.12 65.44 27.1 65.37C27.07 65.29 27.06 65.2 27.06 65.08L27.06 63.43L26.62 63.43L26.62 63.06L27.06 63.06L27.06 62.28L27.49 62.28ZM63.52 62.28L63.52 63.06L64.03 63.06L64.03 63.43L63.52 63.43L63.52 65.04C63.52 65.09 63.52 65.13 63.53 65.16C63.54 65.19 63.55 65.21 63.58 65.23C63.6 65.24 63.63 65.26 63.67 65.26C63.72 65.27 63.77 65.27 63.84 65.27L64.03 65.27L64.03 65.64L63.71 65.64C63.6 65.64 63.5 65.64 63.42 65.62C63.35 65.61 63.28 65.58 63.23 65.54C63.19 65.5 63.15 65.44 63.13 65.37C63.1 65.29 63.09 65.2 63.09 65.08L63.09 63.43L62.65 63.43L62.65 63.06L63.09 63.06L63.09 62.28L63.52 62.28ZM49.3 62.47L49.3 63.78L50.23 63.78C50.5 63.79 50.7 63.73 50.82 63.62C50.95 63.5 51.01 63.34 51.01 63.13C51.01 62.91 50.95 62.75 50.82 62.64C50.7 62.53 50.5 62.47 50.23 62.47L49.3 62.47ZM16.78 65.64L16.78 63.06L17.18 63.06L17.18 63.6L17.19 63.6C17.29 63.39 17.42 63.24 17.57 63.14Q17.79 62.99 18.14 63L18.14 63.45Q17.88 63.45 17.7 63.52C17.58 63.56 17.49 63.63 17.41 63.72C17.34 63.81 17.29 63.92 17.25 64.05Q17.2 64.24 17.2 64.49L17.2 65.64L16.78 65.64ZM51.98 65.64L51.98 63.06L52.38 63.06L52.38 63.6L52.39 63.6Q52.55 63.29 52.77 63.14C52.92 63.04 53.11 62.99 53.34 63L53.34 63.45Q53.09 63.45 52.91 63.52C52.79 63.56 52.69 63.63 52.62 63.72C52.55 63.81 52.49 63.92 52.46 64.05Q52.41 64.24 52.41 64.49L52.41 65.64L51.98 65.64ZM18.31 64.88Q18.23 64.64 18.23 64.35Q18.23 64.07 18.31 63.82C18.37 63.66 18.45 63.51 18.55 63.39Q18.59 63.35 18.63 63.31Q18.77 63.18 18.95 63.1C19.1 63.03 19.28 63 19.49 63Q19.8 63 20.03 63.1C20.18 63.17 20.32 63.27 20.42 63.39C20.53 63.51 20.61 63.66 20.66 63.82C20.72 63.99 20.74 64.16 20.74 64.35Q20.74 64.64 20.66 64.88C20.61 65.05 20.53 65.19 20.42 65.31C20.32 65.43 20.18 65.53 20.03 65.6C19.87 65.66 19.69 65.7 19.49 65.7Q19.18 65.7 18.95 65.6C18.79 65.53 18.66 65.43 18.55 65.31C18.45 65.19 18.37 65.05 18.31 64.88ZM21.24 65.64L21.24 63.06L21.64 63.06L21.64 63.44L21.65 63.44C21.85 63.14 22.12 63 22.49 63C22.65 63 22.79 63.03 22.92 63.1C23.05 63.16 23.14 63.28 23.2 63.44C23.28 63.3 23.4 63.19 23.54 63.11C23.68 63.04 23.84 63 24.01 63Q24.2 63 24.36 63.04C24.46 63.07 24.55 63.11 24.63 63.17C24.7 63.23 24.76 63.31 24.8 63.41C24.85 63.5 24.87 63.61 24.87 63.75L24.87 65.64L24.44 65.64L24.44 63.95C24.44 63.87 24.44 63.79 24.42 63.72C24.41 63.65 24.38 63.59 24.35 63.54C24.31 63.49 24.26 63.45 24.19 63.42C24.13 63.39 24.05 63.37 23.94 63.37C23.73 63.37 23.57 63.43 23.45 63.55C23.33 63.67 23.27 63.83 23.27 64.03L23.27 65.64L22.84 65.64L22.84 63.95C22.84 63.86 22.83 63.79 22.82 63.72C22.8 63.65 22.78 63.59 22.74 63.54C22.71 63.48 22.66 63.44 22.59 63.42C22.53 63.39 22.45 63.37 22.36 63.37C22.23 63.37 22.13 63.4 22.04 63.45C21.95 63.5 21.88 63.56 21.82 63.63C21.77 63.7 21.73 63.77 21.7 63.85C21.68 63.92 21.67 63.98 21.67 64.03L21.67 65.64L21.24 65.64ZM33.04 64.82L33.46 64.82C33.4 65.11 33.28 65.33 33.08 65.48C32.89 65.62 32.65 65.7 32.35 65.7Q32.04 65.7 31.81 65.6C31.66 65.53 31.54 65.44 31.43 65.32C31.33 65.2 31.25 65.05 31.2 64.89C31.15 64.72 31.12 64.54 31.11 64.34C31.11 64.15 31.14 63.97 31.2 63.8C31.26 63.64 31.35 63.5 31.45 63.38C31.56 63.26 31.69 63.16 31.84 63.1C31.99 63.03 32.15 63 32.33 63C32.56 63 32.75 63.05 32.9 63.14C33.05 63.24 33.17 63.36 33.26 63.5C33.36 63.65 33.42 63.81 33.45 63.98C33.49 64.16 33.5 64.32 33.5 64.48L31.56 64.48C31.56 64.59 31.57 64.7 31.6 64.8C31.63 64.9 31.68 64.99 31.75 65.07C31.81 65.15 31.9 65.21 32 65.26C32.11 65.3 32.23 65.33 32.37 65.33C32.55 65.33 32.69 65.29 32.81 65.2C32.92 65.12 33 64.99 33.04 64.82ZM38.88 64.88Q38.8 64.64 38.8 64.35Q38.8 64.07 38.88 63.82C38.93 63.66 39.01 63.51 39.12 63.39C39.22 63.27 39.36 63.17 39.51 63.1C39.67 63.03 39.85 63 40.05 63Q40.36 63 40.59 63.1C40.75 63.17 40.88 63.27 40.99 63.39C41.09 63.51 41.17 63.66 41.23 63.82Q41.31 64.07 41.31 64.35Q41.31 64.64 41.23 64.88Q41.16 65.09 41.04 65.25Q41.02 65.28 40.99 65.31C40.88 65.43 40.75 65.53 40.59 65.6Q40.36 65.7 40.05 65.7C39.85 65.7 39.67 65.66 39.51 65.6C39.36 65.53 39.22 65.43 39.12 65.31Q39.09 65.28 39.07 65.25Q38.94 65.09 38.88 64.88ZM44.59 65.64L44.59 63.06L44.99 63.06L44.99 63.47L45 63.47C45.17 63.15 45.45 63 45.84 63C46.01 63 46.15 63.02 46.26 63.07C46.38 63.11 46.47 63.18 46.54 63.26C46.61 63.35 46.66 63.45 46.68 63.56Q46.73 63.73 46.73 63.94L46.73 65.64L46.3 65.64L46.3 63.89Q46.3 63.7 46.21 63.57Q46.19 63.54 46.16 63.51C46.07 63.42 45.94 63.37 45.78 63.37C45.65 63.37 45.53 63.39 45.44 63.43C45.34 63.47 45.27 63.53 45.2 63.6C45.14 63.68 45.09 63.76 45.06 63.86C45.03 63.96 45.01 64.07 45.01 64.18L45.01 65.64L44.59 65.64ZM53.52 64.88C53.46 64.72 53.44 64.54 53.44 64.35C53.44 64.16 53.46 63.99 53.52 63.82C53.57 63.66 53.65 63.51 53.76 63.39C53.86 63.27 54 63.17 54.15 63.1Q54.39 63 54.69 63C54.9 63 55.08 63.03 55.23 63.1C55.39 63.17 55.52 63.27 55.63 63.39C55.73 63.51 55.81 63.66 55.87 63.82C55.92 63.99 55.95 64.16 55.95 64.35C55.95 64.54 55.92 64.72 55.87 64.88C55.81 65.05 55.73 65.19 55.63 65.31C55.52 65.43 55.39 65.53 55.23 65.6C55.08 65.66 54.9 65.7 54.69 65.7Q54.39 65.7 54.15 65.6C54 65.53 53.86 65.43 53.76 65.31C53.65 65.19 53.57 65.05 53.52 64.88ZM59.34 64.82L59.76 64.82C59.7 65.11 59.58 65.33 59.39 65.48C59.19 65.62 58.95 65.7 58.66 65.7C58.45 65.7 58.27 65.66 58.12 65.6Q57.96 65.53 57.84 65.42Q57.78 65.37 57.74 65.32C57.63 65.2 57.55 65.05 57.5 64.89C57.45 64.72 57.42 64.54 57.42 64.34C57.42 64.15 57.45 63.97 57.51 63.8C57.57 63.64 57.65 63.5 57.76 63.38C57.87 63.26 57.99 63.16 58.14 63.1C58.29 63.03 58.45 63 58.63 63C58.86 63 59.05 63.05 59.2 63.14C59.35 63.24 59.48 63.36 59.57 63.5C59.66 63.65 59.72 63.81 59.76 63.98Q59.81 64.24 59.8 64.48L57.87 64.48Q57.86 64.65 57.91 64.8C57.94 64.9 57.98 64.99 58.05 65.07C58.12 65.15 58.2 65.21 58.31 65.26C58.41 65.3 58.53 65.33 58.67 65.33C58.85 65.33 59 65.29 59.11 65.2C59.23 65.12 59.3 64.99 59.34 64.82ZM62.44 63.89L62 63.89C61.96 63.72 61.89 63.6 61.79 63.51Q61.78 63.5 61.78 63.5Q61.62 63.37 61.36 63.37Q61.13 63.37 60.97 63.46C60.87 63.51 60.79 63.59 60.72 63.68C60.66 63.78 60.62 63.88 60.59 64.01Q60.55 64.19 60.55 64.38Q60.55 64.56 60.59 64.73C60.62 64.85 60.67 64.95 60.73 65.04C60.79 65.12 60.87 65.19 60.96 65.25C61.06 65.3 61.17 65.33 61.31 65.33Q61.6 65.33 61.78 65.18Q61.79 65.17 61.8 65.16C61.92 65.05 61.99 64.9 62.02 64.7L62.45 64.7C62.41 65.02 62.29 65.26 62.09 65.44C61.9 65.61 61.64 65.7 61.31 65.7Q61.02 65.7 60.79 65.6C60.64 65.54 60.51 65.45 60.41 65.33C60.31 65.22 60.23 65.08 60.18 64.92C60.13 64.75 60.1 64.58 60.1 64.38C60.1 64.19 60.13 64.01 60.18 63.84C60.23 63.67 60.3 63.53 60.4 63.4Q60.46 63.34 60.52 63.28Q60.64 63.18 60.79 63.11C60.94 63.03 61.12 63 61.32 63C61.47 63 61.61 63.02 61.73 63.05C61.86 63.09 61.98 63.14 62.07 63.21C62.17 63.29 62.25 63.38 62.32 63.49C62.38 63.6 62.42 63.73 62.44 63.89ZM43.95 63.06L43.95 65.64L43.55 65.64L43.55 65.23L43.54 65.23Q43.41 65.46 43.22 65.57Q43.21 65.58 43.19 65.59C43.05 65.66 42.89 65.7 42.7 65.7C42.53 65.7 42.39 65.68 42.27 65.63C42.16 65.59 42.07 65.52 42 65.44C41.93 65.35 41.88 65.26 41.85 65.14C41.82 65.03 41.81 64.9 41.81 64.76L41.81 63.06L42.23 63.06L42.23 64.81C42.23 64.97 42.28 65.09 42.37 65.19C42.47 65.28 42.6 65.33 42.76 65.33C42.89 65.33 43 65.31 43.09 65.27C43.19 65.23 43.27 65.17 43.33 65.1Q43.36 65.07 43.38 65.04Q43.44 64.95 43.47 64.84Q43.52 64.69 43.52 64.52L43.52 63.06L43.95 63.06ZM56.9 63.06L56.9 65.97C56.9 66.2 56.84 66.36 56.73 66.47C56.62 66.57 56.47 66.63 56.28 66.63Q56.16 66.63 56.06 66.61L56.06 66.24C56.08 66.25 56.09 66.25 56.11 66.25C56.12 66.25 56.13 66.25 56.14 66.25L56.23 66.25C56.33 66.25 56.39 66.23 56.42 66.17C56.46 66.12 56.47 66.03 56.47 65.9L56.47 63.06L56.9 63.06ZM18.74 63.94Q18.68 64.12 18.68 64.35Q18.68 64.59 18.74 64.77C18.79 64.89 18.84 64.99 18.92 65.08C18.99 65.16 19.08 65.22 19.17 65.26C19.27 65.31 19.38 65.33 19.49 65.33C19.6 65.33 19.7 65.31 19.8 65.26C19.9 65.22 19.98 65.16 20.06 65.08C20.13 64.99 20.19 64.89 20.23 64.77Q20.29 64.59 20.29 64.35Q20.29 64.12 20.23 63.94C20.19 63.81 20.13 63.71 20.06 63.63C19.98 63.54 19.9 63.48 19.8 63.44C19.7 63.39 19.6 63.37 19.49 63.37C19.38 63.37 19.27 63.39 19.17 63.44C19.08 63.48 18.99 63.54 18.92 63.63C18.84 63.71 18.79 63.81 18.74 63.94ZM31.56 64.1L33.05 64.1C33.04 64 33.02 63.91 32.98 63.82C32.94 63.73 32.89 63.65 32.82 63.59C32.76 63.52 32.68 63.47 32.59 63.43C32.51 63.39 32.41 63.37 32.3 63.37Q32.14 63.37 32 63.43C31.92 63.47 31.84 63.52 31.78 63.59C31.71 63.65 31.66 63.73 31.63 63.82C31.59 63.91 31.57 64 31.56 64.1ZM39.31 63.94Q39.25 64.12 39.25 64.35Q39.25 64.59 39.31 64.77C39.35 64.89 39.41 64.99 39.48 65.08C39.56 65.16 39.64 65.22 39.74 65.26C39.84 65.31 39.94 65.33 40.05 65.33C40.16 65.33 40.27 65.31 40.36 65.26C40.46 65.22 40.55 65.16 40.62 65.08C40.7 64.99 40.75 64.89 40.79 64.77C40.84 64.65 40.86 64.51 40.86 64.35C40.86 64.2 40.84 64.06 40.79 63.94C40.75 63.81 40.7 63.71 40.62 63.63C40.55 63.54 40.46 63.48 40.36 63.44C40.27 63.39 40.16 63.37 40.05 63.37C39.94 63.37 39.84 63.39 39.74 63.44C39.64 63.48 39.56 63.54 39.48 63.63C39.41 63.71 39.35 63.81 39.31 63.94ZM53.95 63.94C53.91 64.06 53.89 64.2 53.89 64.35C53.89 64.51 53.91 64.65 53.95 64.77C53.99 64.89 54.05 64.99 54.12 65.08C54.2 65.16 54.28 65.22 54.38 65.26C54.48 65.31 54.58 65.33 54.69 65.33C54.8 65.33 54.91 65.31 55 65.26C55.1 65.22 55.19 65.16 55.26 65.08C55.34 64.99 55.39 64.89 55.43 64.77Q55.5 64.59 55.5 64.35Q55.5 64.12 55.43 63.94C55.39 63.81 55.34 63.71 55.26 63.63C55.19 63.54 55.1 63.48 55 63.44C54.91 63.39 54.8 63.37 54.69 63.37C54.58 63.37 54.48 63.39 54.38 63.44C54.28 63.48 54.2 63.54 54.12 63.63C54.05 63.71 53.99 63.81 53.95 63.94ZM57.87 64.1L59.35 64.1C59.34 64 59.32 63.91 59.28 63.82C59.24 63.73 59.19 63.65 59.13 63.59C59.06 63.52 58.99 63.47 58.9 63.43C58.81 63.39 58.71 63.37 58.61 63.37C58.5 63.37 58.4 63.39 58.31 63.43C58.22 63.47 58.14 63.52 58.08 63.59C58.02 63.65 57.97 63.73 57.93 63.82C57.89 63.91 57.87 64 57.87 64.1Z" fill="#5B5B5B" fill-opacity="1.000000" fill-rule="evenodd"/>
	</g>
</svg>
