<svg width="158.171265" height="46.022949" viewBox="0 0 158.171 46.0229" fill="none" xmlns="http://www.w3.org/2000/svg" xmlns:xlink="http://www.w3.org/1999/xlink">
	<desc>
			Created with Pixso.
	</desc>
	<defs/>
	<path id="Puphub" d="M56.51 20.44L56.51 15.44C57.55 15.37 58.27 15.33 58.67 15.33C59.8 15.3 60.81 15.34 61.7 15.44C61.73 15.74 61.74 15.96 61.74 16.08C61.84 17.13 61.89 17.77 61.89 18C61.89 18.81 61.83 19.63 61.71 20.44L56.51 20.44ZM65.43 11.27L65.21 11.21C65.23 11.21 65.04 11.17 64.62 11.11C64.11 11.04 63.6 10.97 63.09 10.91C61.41 10.72 59.91 10.64 58.59 10.66C57.27 10.68 55.64 10.79 53.71 11C53.12 11.07 52.53 11.15 51.93 11.22C51.44 11.29 51.2 11.33 51.21 11.33L50.81 11.39L50.39 11.47L51.06 11.99C51.45 12.3 51.74 12.61 51.92 12.91C52.14 13.28 52.24 13.71 52.24 14.19L52.24 32.83L56.51 32.83L56.51 24.44L65.46 24.44L65.49 24.25L65.51 24.14C65.56 23.92 65.62 23.58 65.7 23.11C65.99 21.39 66.14 19.77 66.14 18.24C66.14 15.51 65.92 13.26 65.49 11.5L65.43 11.27Z" fill="#FFAA00" fill-opacity="1.000000" fill-rule="nonzero"/>
	<path id="Puphub" d="M84.28 31.96C84.3 31.96 84.08 32 83.64 32.1C83.09 32.21 82.54 32.31 81.96 32.39C80.11 32.68 78.36 32.83 76.73 32.83C73.96 32.83 71.73 32.6 70.06 32.14L69.81 32.05L69.81 13.27C69.81 12.23 69.36 11.37 68.48 10.69L74.07 10.69L74.04 28.1C74.5 28.17 75.4 28.21 76.73 28.21C78.08 28.21 78.96 28.17 79.37 28.1L79.37 10.69L83.7 10.66L83.7 29.27C83.7 30.17 83.91 30.87 84.34 31.35C84.56 31.57 84.78 31.72 84.99 31.78L84.28 31.96Z" fill="#FFAA00" fill-opacity="1.000000" fill-rule="nonzero"/>
	<path id="Puphub" d="M93.48 20.44L93.48 15.44C94.52 15.37 95.24 15.33 95.64 15.33C96.77 15.3 97.78 15.34 98.67 15.44C98.7 15.74 98.71 15.96 98.71 16.08C98.81 17.13 98.85 17.77 98.85 18C98.85 18.81 98.8 19.63 98.68 20.44L93.48 20.44ZM102.4 11.27L102.18 11.21C102.2 11.21 102.01 11.17 101.59 11.11C101.08 11.04 100.57 10.97 100.06 10.91C98.38 10.72 96.88 10.64 95.56 10.66C94.23 10.68 92.61 10.79 90.68 11C90.09 11.07 89.49 11.15 88.9 11.22C88.41 11.29 88.17 11.33 88.18 11.33L87.78 11.39L87.35 11.47L88.03 11.99C88.42 12.3 88.71 12.61 88.89 12.91C89.1 13.28 89.21 13.71 89.21 14.19L89.21 32.83L93.48 32.83L93.48 24.44L102.43 24.44L102.46 24.25L102.48 24.14C102.53 23.92 102.59 23.58 102.67 23.11C102.96 21.39 103.1 19.77 103.1 18.24C103.1 15.51 102.89 13.26 102.46 11.5L102.4 11.27Z" fill="#FFAA00" fill-opacity="1.000000" fill-rule="nonzero"/>
	<path id="Puphub" d="M119.81 13.02C119.79 12.57 119.9 12.16 120.15 11.78C120.21 11.69 120.38 11.5 120.65 11.21L121.23 10.56L115.62 10.56L115.62 19.92L111.2 19.92L111.2 10.56L105.45 10.56L106.21 11.24C106.78 11.73 107.05 12.32 107.03 13.03L107.03 30.36C107.05 30.81 106.95 31.21 106.73 31.56C106.69 31.62 106.57 31.75 106.37 31.97L105.59 32.83L111.2 32.83L111.2 24.44L115.62 24.44L115.62 32.83L121.37 32.83L120.65 32.16C120.11 31.67 119.83 31.06 119.81 30.35L119.81 13.02Z" fill="#FFE55E" fill-opacity="1.000000" fill-rule="nonzero"/>
	<path id="Puphub" d="M139.53 31.96C139.55 31.96 139.33 32 138.89 32.1C138.34 32.21 137.79 32.31 137.21 32.39C135.36 32.68 133.61 32.83 131.98 32.83C129.21 32.83 126.98 32.6 125.31 32.14L125.06 32.05L125.06 13.27C125.06 12.23 124.61 11.37 123.73 10.69L129.32 10.69L129.29 28.1C129.75 28.17 130.64 28.21 131.98 28.21C133.33 28.21 134.21 28.17 134.62 28.1L134.62 10.69L138.95 10.66L138.95 29.27C138.95 30.17 139.16 30.87 139.59 31.35C139.81 31.57 140.03 31.72 140.24 31.78L139.53 31.96Z" fill="#FFE55E" fill-opacity="1.000000" fill-rule="nonzero"/>
	<path id="Puphub" d="M150.64 28.49C149.76 28.49 149 28.44 148.35 28.36L148.35 23.8L153.21 23.8C153.47 24.35 153.6 25.13 153.6 26.14C153.6 27.16 153.47 27.88 153.2 28.28C152.46 28.42 151.6 28.49 150.64 28.49ZM153.26 17.27C153.26 18.27 153.14 19.05 152.89 19.63L148.35 19.63L148.35 15.08C149.22 14.98 149.93 14.92 150.48 14.91L150.64 14.91C151.23 14.91 151.97 14.98 152.85 15.11C153.13 15.53 153.26 16.25 153.26 17.27ZM157.98 16.89C157.98 15.13 157.62 13.29 156.9 11.36L156.76 11.14L156.54 11.11C154.53 10.75 152.64 10.56 150.85 10.56L150.57 10.56C148.73 10.59 146.34 10.8 143.4 11.21L142.62 11.31L143.2 11.86C143.85 12.48 144.18 13.19 144.18 14L144.18 29.38C144.18 30.23 143.86 30.94 143.21 31.52L142.6 32.05L143.4 32.17C145.8 32.58 148.19 32.8 150.57 32.83L150.84 32.83C152.69 32.83 154.68 32.65 156.81 32.3L157.04 32.25L157.1 32.03C157.81 29.65 158.17 27.53 158.17 25.69C158.17 24.54 157.85 23.21 157.23 21.67C157.73 20.09 157.98 18.5 157.98 16.89Z" fill="#FFE55E" fill-opacity="1.000000" fill-rule="nonzero"/>
	<path id="Vector" d="M25.22 24.12C24.87 28.3 28.36 29.27 31.19 33.17C35.4 38.77 39.56 37.77 40.75 34.25C41.87 30.87 38.77 27.98 39.06 24.25C39.36 20.53 43.08 17.59 42.56 14.16C42.03 10.74 38.01 9.71 32.8 15.24C29.26 19.06 25.68 19.98 25.22 24.12Z" fill="#FFE55E" fill-opacity="1.000000" fill-rule="nonzero"/>
	<path id="Vector" d="M19.17 12.87C21.8 15.25 25.22 15.38 26.78 13.31C28.33 11.23 27.46 7.65 24.77 5.42C22.14 3.04 18.72 2.91 17.17 4.98C15.66 6.93 16.54 10.5 19.17 12.87Z" fill="#FFAA00" fill-opacity="1.000000" fill-rule="nonzero"/>
	<path id="Vector" d="M11.25 23.2C14.85 23.9 18.36 22.47 19.09 19.72C19.75 17.11 17.41 14.38 13.69 13.63C10.09 12.94 6.57 14.37 5.85 17.11C5.18 19.72 7.64 22.51 11.25 23.2Z" fill="#FFAA00" fill-opacity="1.000000" fill-rule="nonzero"/>
	<path id="Vector" d="M11.85 35.84C15.45 36.54 18.97 35.11 19.69 32.37C20.36 29.76 18.02 27.02 14.3 26.28C10.69 25.58 7.18 27.01 6.46 29.76C5.79 32.36 8.25 35.15 11.85 35.84Z" fill="#FFAA00" fill-opacity="1.000000" fill-rule="nonzero"/>
</svg>
