<svg width="265.000000" height="17.987183" viewBox="0 0 265 17.9872" fill="none" xmlns="http://www.w3.org/2000/svg" xmlns:xlink="http://www.w3.org/1999/xlink">
	<desc>
			Created with Pixso.
	</desc>
	<defs/>
	<path id="Vector" d="M33.58 8.03C33.98 7.2 34.09 6.26 33.91 5.35C33.77 4.58 33.42 3.87 32.91 3.31C32.39 2.75 31.73 2.37 31.01 2.21C30.44 2.07 29.85 2.08 29.28 2.22C28.71 2.37 28.18 2.66 27.73 3.06C26.61 4 25.21 4.5 23.78 4.47L10.21 4.47C8.78 4.5 7.38 4 6.26 3.06C5.81 2.66 5.28 2.37 4.71 2.22C4.14 2.08 3.55 2.07 2.98 2.21C2.26 2.37 1.6 2.75 1.08 3.31C0.57 3.87 0.22 4.58 0.08 5.35C-0.1 6.26 0.01 7.2 0.41 8.03C0.55 8.32 0.62 8.65 0.62 8.99C0.62 9.32 0.55 9.65 0.41 9.95C0.02 10.77 -0.1 11.72 0.08 12.62C0.22 13.39 0.57 14.1 1.08 14.66C1.6 15.22 2.26 15.61 2.98 15.77C3.55 15.9 4.14 15.9 4.71 15.75C5.28 15.61 5.81 15.32 6.26 14.92C7.38 13.97 8.78 13.47 10.21 13.5L23.78 13.5C25.21 13.47 26.61 13.97 27.73 14.92C28.18 15.32 28.71 15.61 29.28 15.75C29.85 15.9 30.44 15.9 31.01 15.77C31.73 15.61 32.39 15.22 32.91 14.66C33.42 14.1 33.77 13.39 33.91 12.62C34.09 11.72 33.97 10.77 33.58 9.95C33.44 9.65 33.37 9.32 33.37 8.99C33.37 8.65 33.44 8.32 33.58 8.03Z" fill="#DDCA69" fill-opacity="1.000000" fill-rule="nonzero"/>
	<path id="Vector" d="M77.58 8.03C77.98 7.2 78.09 6.26 77.91 5.35C77.77 4.58 77.42 3.87 76.91 3.31C76.39 2.75 75.73 2.37 75.01 2.21C74.44 2.07 73.85 2.08 73.28 2.22C72.71 2.37 72.18 2.66 71.73 3.06C70.61 4 69.21 4.5 67.78 4.47L54.21 4.47C52.78 4.5 51.38 4 50.26 3.06C49.81 2.66 49.28 2.37 48.71 2.22C48.14 2.08 47.55 2.07 46.98 2.21C46.26 2.37 45.6 2.75 45.08 3.31C44.57 3.87 44.22 4.58 44.08 5.35C43.9 6.26 44.01 7.2 44.41 8.03C44.55 8.32 44.62 8.65 44.62 8.99C44.62 9.32 44.55 9.65 44.41 9.95C44.02 10.77 43.9 11.72 44.08 12.62C44.22 13.39 44.57 14.1 45.08 14.66C45.6 15.22 46.26 15.61 46.98 15.77C47.55 15.9 48.14 15.9 48.71 15.75C49.28 15.61 49.81 15.32 50.26 14.92C51.38 13.97 52.78 13.47 54.21 13.5L67.78 13.5C69.21 13.47 70.61 13.97 71.73 14.92C72.18 15.32 72.71 15.61 73.28 15.75C73.85 15.9 74.44 15.9 75.01 15.77C75.73 15.61 76.39 15.22 76.91 14.66C77.42 14.1 77.77 13.39 77.91 12.62C78.09 11.72 77.97 10.77 77.58 9.95C77.44 9.65 77.37 9.32 77.37 8.99C77.37 8.65 77.44 8.32 77.58 8.03Z" fill="#DDCA69" fill-opacity="1.000000" fill-rule="nonzero"/>
	<path id="Vector" d="M120.58 8.03C120.98 7.2 121.09 6.26 120.91 5.35C120.77 4.58 120.43 3.87 119.91 3.31C119.39 2.75 118.73 2.37 118.01 2.21C117.44 2.07 116.85 2.08 116.28 2.22C115.71 2.37 115.18 2.66 114.73 3.06C113.61 4 112.21 4.5 110.78 4.47L97.21 4.47C95.78 4.5 94.38 4 93.26 3.06C92.81 2.66 92.28 2.37 91.71 2.22C91.14 2.08 90.55 2.07 89.98 2.21C89.26 2.37 88.6 2.75 88.08 3.31C87.57 3.87 87.22 4.58 87.08 5.35C86.9 6.26 87.01 7.2 87.41 8.03C87.55 8.32 87.62 8.65 87.62 8.99C87.62 9.32 87.55 9.65 87.41 9.95C87.02 10.77 86.9 11.72 87.08 12.62C87.22 13.39 87.57 14.1 88.08 14.66C88.6 15.22 89.26 15.61 89.98 15.77C90.55 15.9 91.14 15.9 91.71 15.75C92.28 15.61 92.81 15.32 93.26 14.92C94.38 13.97 95.78 13.47 97.21 13.5L110.78 13.5C112.21 13.47 113.61 13.97 114.73 14.92C115.18 15.32 115.71 15.61 116.28 15.75C116.85 15.9 117.44 15.9 118.01 15.77C118.73 15.61 119.39 15.22 119.91 14.66C120.42 14.1 120.77 13.39 120.91 12.62C121.09 11.72 120.98 10.77 120.58 9.95C120.44 9.65 120.37 9.32 120.37 8.99C120.37 8.65 120.44 8.32 120.58 8.03Z" fill="#DDCA69" fill-opacity="1.000000" fill-rule="nonzero"/>
	<path id="Vector" d="M167.58 8.03C167.98 7.2 168.09 6.26 167.91 5.35C167.77 4.58 167.43 3.87 166.91 3.31C166.39 2.75 165.73 2.37 165.01 2.21C164.44 2.07 163.85 2.08 163.28 2.22C162.71 2.37 162.18 2.66 161.73 3.06C160.61 4 159.21 4.5 157.78 4.47L144.21 4.47C142.78 4.5 141.38 4 140.26 3.06C139.81 2.66 139.28 2.37 138.71 2.22C138.14 2.08 137.55 2.07 136.98 2.21C136.26 2.37 135.6 2.75 135.08 3.31C134.57 3.87 134.22 4.58 134.08 5.35C133.9 6.26 134.02 7.2 134.41 8.03C134.55 8.32 134.62 8.65 134.62 8.99C134.62 9.32 134.55 9.65 134.41 9.95C134.02 10.77 133.9 11.72 134.08 12.62C134.22 13.39 134.57 14.1 135.08 14.66C135.6 15.22 136.26 15.61 136.98 15.77C137.55 15.9 138.14 15.9 138.71 15.75C139.28 15.61 139.81 15.32 140.26 14.92C141.38 13.97 142.78 13.47 144.21 13.5L157.78 13.5C159.21 13.47 160.61 13.97 161.73 14.92C162.18 15.32 162.71 15.61 163.28 15.75C163.85 15.9 164.44 15.9 165.01 15.77C165.73 15.61 166.39 15.22 166.91 14.66C167.42 14.1 167.77 13.39 167.91 12.62C168.09 11.72 167.98 10.77 167.58 9.95C167.44 9.65 167.37 9.32 167.37 8.99C167.37 8.65 167.44 8.32 167.58 8.03Z" fill="#DDCA69" fill-opacity="1.000000" fill-rule="nonzero"/>
	<path id="Vector" d="M208.73 14.92C209.18 15.32 209.71 15.61 210.28 15.75C210.85 15.9 211.44 15.9 212.01 15.77C212.73 15.61 213.39 15.22 213.91 14.66C214.42 14.1 214.77 13.39 214.91 12.62C215.09 11.72 214.98 10.77 214.58 9.95C214.44 9.65 214.37 9.32 214.37 8.99C214.37 8.65 214.44 8.32 214.58 8.03C214.98 7.2 215.09 6.26 214.91 5.35C214.77 4.58 214.43 3.87 213.91 3.31C213.39 2.75 212.73 2.37 212.01 2.21C211.44 2.07 210.85 2.08 210.28 2.22C209.71 2.37 209.18 2.66 208.73 3.06C207.61 4 206.21 4.5 204.78 4.47L191.21 4.47C189.78 4.5 188.38 4 187.26 3.06C186.81 2.66 186.28 2.37 185.71 2.22C185.14 2.08 184.55 2.07 183.98 2.21C183.26 2.37 182.6 2.75 182.08 3.31C181.57 3.87 181.22 4.58 181.08 5.35C180.9 6.26 181.02 7.2 181.41 8.03C181.55 8.32 181.62 8.65 181.62 8.99C181.62 9.32 181.55 9.65 181.41 9.95C181.02 10.77 180.9 11.72 181.08 12.62C181.22 13.39 181.57 14.1 182.08 14.66C182.6 15.22 183.26 15.61 183.98 15.77C184.55 15.9 185.14 15.9 185.71 15.75C186.28 15.61 186.81 15.32 187.26 14.92C188.38 13.97 189.78 13.47 191.21 13.5L204.78 13.5C206.21 13.47 207.61 13.97 208.73 14.92ZM213.77 4.94Q213.88 5.23 213.93 5.53L213.93 5.54Q213.98 5.79 213.99 6.05Q214 6.32 213.97 6.6Q213.92 6.96 213.8 7.3Q213.75 7.45 213.68 7.59Q213.54 7.89 213.46 8.21Q213.37 8.59 213.37 8.99Q213.37 9.4 213.47 9.8Q213.55 10.09 213.68 10.37Q213.76 10.54 213.82 10.71Q213.93 11.03 213.97 11.38Q213.99 11.5 213.99 11.63Q214.01 12.04 213.93 12.44Q213.87 12.75 213.77 13.03Q213.72 13.16 213.66 13.28Q213.5 13.59 213.29 13.84Q213.24 13.92 213.17 13.98Q212.95 14.23 212.69 14.4Q212.61 14.45 212.53 14.5Q212.43 14.56 212.32 14.61Q212.06 14.73 211.78 14.79Q211.47 14.87 211.16 14.87Q210.84 14.86 210.53 14.78Q210.3 14.73 210.1 14.63Q209.72 14.46 209.39 14.17L209.38 14.17L209.38 14.16Q208.76 13.64 208.06 13.27Q207.65 13.06 207.21 12.9Q206.41 12.61 205.58 12.53Q205.18 12.49 204.78 12.5L191.23 12.5Q190.66 12.49 190.1 12.57Q189.43 12.67 188.78 12.9Q188.34 13.06 187.93 13.27Q187.23 13.64 186.62 14.16L186.61 14.17L186.6 14.17Q186.27 14.46 185.89 14.63Q185.69 14.73 185.46 14.78Q185.21 14.85 184.95 14.86Q184.58 14.88 184.2 14.79Q184.08 14.76 183.96 14.73Q183.7 14.64 183.46 14.5Q183.38 14.45 183.31 14.4Q183.04 14.23 182.82 13.98Q182.75 13.92 182.7 13.84Q182.49 13.59 182.34 13.28Q182.14 12.88 182.06 12.43Q182.01 12.18 182 11.93Q181.99 11.65 182.02 11.38Q182.07 11 182.2 10.65Q182.25 10.51 182.31 10.38Q182.45 10.08 182.53 9.76Q182.62 9.39 182.62 8.99Q182.62 8.57 182.52 8.18Q182.45 7.88 182.31 7.6Q182.23 7.43 182.17 7.26Q182.06 6.94 182.02 6.6Q182.01 6.48 182 6.36Q181.98 5.95 182.06 5.53Q182.12 5.23 182.23 4.94Q182.27 4.82 182.34 4.69Q182.49 4.39 182.7 4.13Q182.75 4.06 182.82 3.99Q183.04 3.75 183.3 3.57Q183.38 3.52 183.46 3.48Q183.54 3.43 183.63 3.39Q183.9 3.25 184.21 3.18Q184.52 3.11 184.83 3.11Q185.15 3.11 185.46 3.19Q185.69 3.25 185.89 3.34Q186.27 3.51 186.6 3.8L186.61 3.81L186.62 3.82Q187.23 4.34 187.93 4.7Q188.34 4.91 188.78 5.07Q189.43 5.31 190.1 5.4Q190.66 5.48 191.22 5.47L204.77 5.47Q205.33 5.48 205.89 5.4Q206.56 5.31 207.21 5.07Q207.65 4.91 208.06 4.7Q208.76 4.34 209.37 3.82L209.38 3.81L209.39 3.8Q209.72 3.51 210.1 3.34Q210.3 3.25 210.53 3.19Q210.77 3.13 211.02 3.12Q211.4 3.09 211.8 3.19Q211.92 3.21 212.04 3.25Q212.29 3.34 212.54 3.48Q212.61 3.52 212.69 3.57Q212.95 3.75 213.17 3.99Q213.24 4.06 213.3 4.13Q213.51 4.39 213.66 4.69Q213.72 4.82 213.77 4.94Z" fill="#DDCA69" fill-opacity="1.000000" fill-rule="evenodd"/>
	<path id="4.2/5" d="M249.8 14.16Q249.83 14.17 249.87 14.17L250.41 14.17Q250.57 14.17 250.65 14.1Q250.66 14.09 250.66 14.08Q250.75 13.99 250.78 13.92L255.58 2.44Q255.61 2.33 255.61 2.27Q255.61 2.23 255.6 2.19Q255.58 2.13 255.52 2.08Q255.48 2.03 255.42 2.01Q255.38 1.99 255.33 1.99L254.78 1.99Q254.62 1.99 254.54 2.07Q254.54 2.08 254.54 2.08Q254.46 2.16 254.42 2.24L249.63 13.72Q249.59 13.82 249.59 13.89Q249.59 13.94 249.6 13.98Q249.62 14.04 249.67 14.09Q249.73 14.14 249.8 14.16ZM241.85 12.96Q241.92 13 242.02 13L248.19 13Q248.31 13 248.4 12.94Q248.42 12.92 248.43 12.91Q248.47 12.87 248.49 12.83Q248.53 12.76 248.53 12.67L248.53 12.1Q248.53 11.98 248.47 11.9Q248.45 11.88 248.43 11.86Q248.42 11.85 248.41 11.84Q248.32 11.78 248.19 11.78L243.82 11.78L246.51 9.05Q247.1 8.54 247.49 8.06Q247.89 7.58 248.1 7.07Q248.32 6.56 248.32 5.94Q248.32 5.32 248.11 4.78Q248.05 4.64 247.98 4.5Q247.9 4.34 247.8 4.2Q247.48 3.75 246.94 3.44Q246.23 3.04 245.12 3.04Q244.31 3.04 243.7 3.31Q243.09 3.57 242.68 4.01Q242.36 4.35 242.17 4.75Q242.11 4.87 242.06 4.99Q241.85 5.53 241.83 6.06Q241.83 6.12 241.85 6.17Q241.87 6.21 241.92 6.25Q241.94 6.28 241.97 6.29Q242.04 6.33 242.13 6.33L242.86 6.33Q242.95 6.33 243.07 6.26Q243.09 6.25 243.11 6.24Q243.2 6.16 243.22 6.01Q243.3 5.51 243.53 5.11Q243.63 4.92 243.77 4.77Q243.94 4.6 244.16 4.48Q244.56 4.25 245.12 4.25Q245.95 4.25 246.4 4.66Q246.42 4.68 246.45 4.71Q246.52 4.78 246.57 4.86Q246.9 5.3 246.9 5.98Q246.9 6.14 246.88 6.29Q246.84 6.55 246.73 6.79Q246.55 7.18 246.14 7.61Q245.72 8.04 245.01 8.64L242.04 11.61Q241.83 11.79 241.76 11.95Q241.69 12.1 241.69 12.23L241.69 12.67Q241.69 12.77 241.73 12.84Q241.75 12.87 241.78 12.91Q241.81 12.94 241.85 12.96ZM234.46 12.96Q234.52 13 234.61 13L235.31 13Q235.4 13 235.47 12.96Q235.51 12.94 235.54 12.91Q235.58 12.87 235.6 12.83Q235.63 12.76 235.63 12.67L235.63 10.66L236.9 10.66Q237 10.66 237.07 10.62Q237.11 10.6 237.13 10.57Q237.17 10.53 237.19 10.49Q237.23 10.42 237.23 10.34L237.23 9.76Q237.23 9.67 237.19 9.6Q237.17 9.56 237.13 9.53Q237.11 9.51 237.09 9.5Q237.01 9.44 236.89 9.44L235.63 9.44L235.63 3.52Q235.63 3.43 235.59 3.36Q235.57 3.32 235.54 3.29Q235.51 3.25 235.46 3.23Q235.4 3.2 235.31 3.2L234.3 3.2Q234.05 3.2 233.89 3.32Q233.83 3.36 233.78 3.43L229.58 9.35Q229.5 9.48 229.46 9.6Q229.43 9.72 229.43 9.78L229.43 10.34Q229.43 10.43 229.47 10.5Q229.49 10.54 229.52 10.57Q229.55 10.6 229.59 10.62Q229.66 10.66 229.75 10.66L234.29 10.66L234.29 12.67Q234.29 12.76 234.32 12.83Q234.34 12.87 234.38 12.91Q234.41 12.94 234.46 12.96ZM258.12 12.75Q258.88 13.14 259.99 13.14Q261.03 13.14 261.84 12.75Q262.32 12.52 262.68 12.17Q262.93 11.92 263.11 11.62Q263.58 10.88 263.58 9.82Q263.58 9.06 263.31 8.48Q263.13 8.09 262.86 7.78Q262.73 7.63 262.57 7.49Q262.47 7.4 262.36 7.32Q261.97 7.04 261.5 6.88Q260.89 6.67 260.19 6.67Q259.43 6.67 259 6.84Q258.58 7.02 258.37 7.14L258.63 4.39L262.66 4.39Q262.77 4.39 262.85 4.34Q262.87 4.32 262.9 4.3Q262.92 4.29 262.93 4.27Q262.99 4.19 262.99 4.06L262.99 3.52Q262.99 3.43 262.95 3.36Q262.93 3.32 262.9 3.29Q262.86 3.25 262.82 3.23Q262.75 3.2 262.66 3.2L257.78 3.2Q257.66 3.2 257.58 3.25Q257.56 3.27 257.53 3.29Q257.44 3.38 257.43 3.54L256.98 8.22Q256.97 8.27 256.99 8.32Q257.01 8.39 257.07 8.44Q257.13 8.49 257.19 8.51Q257.24 8.53 257.29 8.53L258.01 8.53Q258.13 8.53 258.23 8.49Q258.3 8.47 258.37 8.42Q258.54 8.31 258.74 8.15Q258.94 8 259.24 7.89Q259.53 7.77 259.99 7.77Q260.6 7.77 261.09 8.01Q261.09 8.01 261.1 8.02Q261.41 8.17 261.64 8.4Q261.78 8.54 261.89 8.72Q261.9 8.73 261.9 8.74Q262.18 9.19 262.18 9.8Q262.18 10.49 261.88 10.97Q261.72 11.23 261.5 11.43Q261.31 11.59 261.09 11.7Q261.03 11.73 260.98 11.75Q260.53 11.95 259.99 11.95Q259.69 11.95 259.4 11.88Q259.26 11.85 259.13 11.8Q258.99 11.75 258.86 11.68Q258.61 11.54 258.4 11.32Q258.09 10.99 257.95 10.48Q257.89 10.29 257.79 10.23Q257.77 10.22 257.75 10.2Q257.66 10.17 257.57 10.17L256.81 10.17Q256.73 10.17 256.66 10.2Q256.63 10.22 256.6 10.25Q256.57 10.27 256.56 10.3Q256.52 10.37 256.53 10.45Q256.54 10.61 256.57 10.77Q256.66 11.28 256.96 11.75Q257.36 12.37 258.12 12.75ZM234.3 9.47L230.93 9.47L234.3 4.67L234.3 9.47ZM238.58 12.96Q238.65 13 238.74 13L239.75 13Q239.84 13 239.91 12.96Q239.95 12.94 239.98 12.91Q240.03 12.86 240.05 12.81Q240.08 12.75 240.08 12.67L240.08 11.67Q240.08 11.58 240.05 11.52Q240.03 11.47 239.98 11.44Q239.95 11.4 239.9 11.38Q239.83 11.34 239.75 11.34L238.74 11.34Q238.65 11.34 238.59 11.38Q238.54 11.4 238.51 11.44Q238.48 11.47 238.45 11.51Q238.42 11.58 238.42 11.67L238.42 12.67Q238.42 12.76 238.45 12.83Q238.47 12.87 238.51 12.91Q238.54 12.94 238.58 12.96Z" fill="#FFFFFF" fill-opacity="1.000000" fill-rule="evenodd"/>
</svg>
