<svg width="269.000000" height="17.987183" viewBox="0 0 269 17.9872" fill="none" xmlns="http://www.w3.org/2000/svg" xmlns:xlink="http://www.w3.org/1999/xlink">
	<desc>
			Created with Pixso.
	</desc>
	<defs/>
	<path id="Vector" d="M33.58 8.03C33.98 7.2 34.09 6.26 33.91 5.35C33.77 4.58 33.42 3.87 32.91 3.31C32.39 2.75 31.73 2.37 31.01 2.21C30.44 2.07 29.85 2.08 29.28 2.22C28.71 2.37 28.18 2.66 27.73 3.06C26.61 4 25.21 4.5 23.78 4.47L10.21 4.47C8.78 4.5 7.38 4 6.26 3.06C5.81 2.66 5.28 2.37 4.71 2.22C4.14 2.08 3.55 2.07 2.98 2.21C2.26 2.37 1.6 2.75 1.08 3.31C0.57 3.87 0.22 4.58 0.08 5.35C-0.1 6.26 0.01 7.2 0.41 8.03C0.55 8.32 0.62 8.65 0.62 8.99C0.62 9.32 0.55 9.65 0.41 9.95C0.02 10.77 -0.1 11.72 0.08 12.62C0.22 13.39 0.57 14.1 1.08 14.66C1.6 15.22 2.26 15.61 2.98 15.77C3.55 15.9 4.14 15.9 4.71 15.75C5.28 15.61 5.81 15.32 6.26 14.92C7.38 13.97 8.78 13.47 10.21 13.5L23.78 13.5C25.21 13.47 26.61 13.97 27.73 14.92C28.18 15.32 28.71 15.61 29.28 15.75C29.85 15.9 30.44 15.9 31.01 15.77C31.73 15.61 32.39 15.22 32.91 14.66C33.42 14.1 33.77 13.39 33.91 12.62C34.09 11.72 33.97 10.77 33.58 9.95C33.44 9.65 33.37 9.32 33.37 8.99C33.37 8.65 33.44 8.32 33.58 8.03Z" fill="#DDCA69" fill-opacity="1.000000" fill-rule="nonzero"/>
	<path id="Vector" d="M77.58 8.03C77.98 7.2 78.09 6.26 77.91 5.35C77.77 4.58 77.42 3.87 76.91 3.31C76.39 2.75 75.73 2.37 75.01 2.21C74.44 2.07 73.85 2.08 73.28 2.22C72.71 2.37 72.18 2.66 71.73 3.06C70.61 4 69.21 4.5 67.78 4.47L54.21 4.47C52.78 4.5 51.38 4 50.26 3.06C49.81 2.66 49.28 2.37 48.71 2.22C48.14 2.08 47.55 2.07 46.98 2.21C46.26 2.37 45.6 2.75 45.08 3.31C44.57 3.87 44.22 4.58 44.08 5.35C43.9 6.26 44.01 7.2 44.41 8.03C44.55 8.32 44.62 8.65 44.62 8.99C44.62 9.32 44.55 9.65 44.41 9.95C44.02 10.77 43.9 11.72 44.08 12.62C44.22 13.39 44.57 14.1 45.08 14.66C45.6 15.22 46.26 15.61 46.98 15.77C47.55 15.9 48.14 15.9 48.71 15.75C49.28 15.61 49.81 15.32 50.26 14.92C51.38 13.97 52.78 13.47 54.21 13.5L67.78 13.5C69.21 13.47 70.61 13.97 71.73 14.92C72.18 15.32 72.71 15.61 73.28 15.75C73.85 15.9 74.44 15.9 75.01 15.77C75.73 15.61 76.39 15.22 76.91 14.66C77.42 14.1 77.77 13.39 77.91 12.62C78.09 11.72 77.97 10.77 77.58 9.95C77.44 9.65 77.37 9.32 77.37 8.99C77.37 8.65 77.44 8.32 77.58 8.03Z" fill="#DDCA69" fill-opacity="1.000000" fill-rule="nonzero"/>
	<path id="Vector" d="M120.58 8.03C120.98 7.2 121.09 6.26 120.91 5.35C120.77 4.58 120.43 3.87 119.91 3.31C119.39 2.75 118.73 2.37 118.01 2.21C117.44 2.07 116.85 2.08 116.28 2.22C115.71 2.37 115.18 2.66 114.73 3.06C113.61 4 112.21 4.5 110.78 4.47L97.21 4.47C95.78 4.5 94.38 4 93.26 3.06C92.81 2.66 92.28 2.37 91.71 2.22C91.14 2.08 90.55 2.07 89.98 2.21C89.26 2.37 88.6 2.75 88.08 3.31C87.57 3.87 87.22 4.58 87.08 5.35C86.9 6.26 87.01 7.2 87.41 8.03C87.55 8.32 87.62 8.65 87.62 8.99C87.62 9.32 87.55 9.65 87.41 9.95C87.02 10.77 86.9 11.72 87.08 12.62C87.22 13.39 87.57 14.1 88.08 14.66C88.6 15.22 89.26 15.61 89.98 15.77C90.55 15.9 91.14 15.9 91.71 15.75C92.28 15.61 92.81 15.32 93.26 14.92C94.38 13.97 95.78 13.47 97.21 13.5L110.78 13.5C112.21 13.47 113.61 13.97 114.73 14.92C115.18 15.32 115.71 15.61 116.28 15.75C116.85 15.9 117.44 15.9 118.01 15.77C118.73 15.61 119.39 15.22 119.91 14.66C120.42 14.1 120.77 13.39 120.91 12.62C121.09 11.72 120.98 10.77 120.58 9.95C120.44 9.65 120.37 9.32 120.37 8.99C120.37 8.65 120.44 8.32 120.58 8.03Z" fill="#DDCA69" fill-opacity="1.000000" fill-rule="nonzero"/>
	<path id="Vector" d="M167.58 8.03C167.98 7.2 168.09 6.26 167.91 5.35C167.77 4.58 167.43 3.87 166.91 3.31C166.39 2.75 165.73 2.37 165.01 2.21C164.44 2.07 163.85 2.08 163.28 2.22C162.71 2.37 162.18 2.66 161.73 3.06C160.61 4 159.21 4.5 157.78 4.47L144.21 4.47C142.78 4.5 141.38 4 140.26 3.06C139.81 2.66 139.28 2.37 138.71 2.22C138.14 2.08 137.55 2.07 136.98 2.21C136.26 2.37 135.6 2.75 135.08 3.31C134.57 3.87 134.22 4.58 134.08 5.35C133.9 6.26 134.02 7.2 134.41 8.03C134.55 8.32 134.62 8.65 134.62 8.99C134.62 9.32 134.55 9.65 134.41 9.95C134.02 10.77 133.9 11.72 134.08 12.62C134.22 13.39 134.57 14.1 135.08 14.66C135.6 15.22 136.26 15.61 136.98 15.77C137.55 15.9 138.14 15.9 138.71 15.75C139.28 15.61 139.81 15.32 140.26 14.92C141.38 13.97 142.78 13.47 144.21 13.5L157.78 13.5C159.21 13.47 160.61 13.97 161.73 14.92C162.18 15.32 162.71 15.61 163.28 15.75C163.85 15.9 164.44 15.9 165.01 15.77C165.73 15.61 166.39 15.22 166.91 14.66C167.42 14.1 167.77 13.39 167.91 12.62C168.09 11.72 167.98 10.77 167.58 9.95C167.44 9.65 167.37 9.32 167.37 8.99C167.37 8.65 167.44 8.32 167.58 8.03Z" fill="#DDCA69" fill-opacity="1.000000" fill-rule="nonzero"/>
	<path id="Vector" d="M214.58 8.03C214.98 7.2 215.09 6.26 214.91 5.35C214.77 4.58 214.43 3.87 213.91 3.31C213.39 2.75 212.73 2.37 212.01 2.21C211.44 2.07 210.85 2.08 210.28 2.22C209.71 2.37 209.18 2.66 208.73 3.06C207.61 4 206.21 4.5 204.78 4.47L191.21 4.47C189.78 4.5 188.38 4 187.26 3.06C186.81 2.66 186.28 2.37 185.71 2.22C185.14 2.08 184.55 2.07 183.98 2.21C183.26 2.37 182.6 2.75 182.08 3.31C181.57 3.87 181.22 4.58 181.08 5.35C180.9 6.26 181.02 7.2 181.41 8.03C181.55 8.32 181.62 8.65 181.62 8.99C181.62 9.32 181.55 9.65 181.41 9.95C181.02 10.77 180.9 11.72 181.08 12.62C181.22 13.39 181.57 14.1 182.08 14.66C182.6 15.22 183.26 15.61 183.98 15.77C184.55 15.9 185.14 15.9 185.71 15.75C186.28 15.61 186.81 15.32 187.26 14.92C188.38 13.97 189.78 13.47 191.21 13.5L204.78 13.5C206.21 13.47 207.61 13.97 208.73 14.92C209.18 15.32 209.71 15.61 210.28 15.75C210.85 15.9 211.44 15.9 212.01 15.77C212.73 15.61 213.39 15.22 213.91 14.66C214.42 14.1 214.77 13.39 214.91 12.62C215.09 11.72 214.98 10.77 214.58 9.95C214.44 9.65 214.37 9.32 214.37 8.99C214.37 8.65 214.44 8.32 214.58 8.03Z" fill="#DDCA69" fill-opacity="1.000000" fill-rule="nonzero"/>
	<path id="Vector" d="M208.73 14.92C209.18 15.32 209.71 15.61 210.28 15.75C210.85 15.9 211.44 15.9 212.01 15.77C212.73 15.61 213.39 15.22 213.91 14.66C214.42 14.1 214.77 13.39 214.91 12.62C215.09 11.72 214.98 10.77 214.58 9.95C214.44 9.65 214.37 9.32 214.37 8.99C214.37 8.65 214.44 8.32 214.58 8.03C214.98 7.2 215.09 6.26 214.91 5.35C214.77 4.58 214.43 3.87 213.91 3.31C213.39 2.75 212.73 2.37 212.01 2.21C211.44 2.07 210.85 2.08 210.28 2.22C209.71 2.37 209.18 2.66 208.73 3.06C207.61 4 206.21 4.5 204.78 4.47L191.21 4.47C189.78 4.5 188.38 4 187.26 3.06C186.81 2.66 186.28 2.37 185.71 2.22C185.14 2.08 184.55 2.07 183.98 2.21C183.26 2.37 182.6 2.75 182.08 3.31C181.57 3.87 181.22 4.58 181.08 5.35C180.9 6.26 181.02 7.2 181.41 8.03C181.55 8.32 181.62 8.65 181.62 8.99C181.62 9.32 181.55 9.65 181.41 9.95C181.02 10.77 180.9 11.72 181.08 12.62C181.22 13.39 181.57 14.1 182.08 14.66C182.6 15.22 183.26 15.61 183.98 15.77C184.55 15.9 185.14 15.9 185.71 15.75C186.28 15.61 186.81 15.32 187.26 14.92C188.38 13.97 189.78 13.47 191.21 13.5L204.78 13.5C206.21 13.47 207.61 13.97 208.73 14.92ZM213.77 4.94Q213.88 5.23 213.93 5.53L213.93 5.54Q213.98 5.79 213.99 6.05Q214 6.32 213.97 6.6Q213.92 6.96 213.8 7.3Q213.75 7.45 213.68 7.59Q213.54 7.89 213.46 8.21Q213.37 8.59 213.37 8.99Q213.37 9.4 213.47 9.8Q213.55 10.09 213.68 10.37Q213.76 10.54 213.82 10.71Q213.93 11.03 213.97 11.38Q213.99 11.5 213.99 11.63Q214.01 12.04 213.93 12.44Q213.87 12.75 213.77 13.03Q213.72 13.16 213.66 13.28Q213.5 13.59 213.29 13.84Q213.24 13.92 213.17 13.98Q212.95 14.23 212.69 14.4Q212.61 14.45 212.53 14.5Q212.43 14.56 212.32 14.61Q212.06 14.73 211.78 14.79Q211.47 14.87 211.16 14.87Q210.84 14.86 210.53 14.78Q210.3 14.73 210.1 14.63Q209.72 14.46 209.39 14.17L209.38 14.17L209.38 14.16Q208.76 13.64 208.06 13.27Q207.65 13.06 207.21 12.9Q206.41 12.61 205.58 12.53Q205.18 12.49 204.78 12.5L191.23 12.5Q190.66 12.49 190.1 12.57Q189.43 12.67 188.78 12.9Q188.34 13.06 187.93 13.27Q187.23 13.64 186.62 14.16L186.61 14.17L186.6 14.17Q186.27 14.46 185.89 14.63Q185.69 14.73 185.46 14.78Q185.21 14.85 184.95 14.86Q184.58 14.88 184.2 14.79Q184.08 14.76 183.96 14.73Q183.7 14.64 183.46 14.5Q183.38 14.45 183.31 14.4Q183.04 14.23 182.82 13.98Q182.75 13.92 182.7 13.84Q182.49 13.59 182.34 13.28Q182.14 12.88 182.06 12.43Q182.01 12.18 182 11.93Q181.99 11.65 182.02 11.38Q182.07 11 182.2 10.65Q182.25 10.51 182.31 10.38Q182.45 10.08 182.53 9.76Q182.62 9.39 182.62 8.99Q182.62 8.57 182.52 8.18Q182.45 7.88 182.31 7.6Q182.23 7.43 182.17 7.26Q182.06 6.94 182.02 6.6Q182.01 6.48 182 6.36Q181.98 5.95 182.06 5.53Q182.12 5.23 182.23 4.94Q182.27 4.82 182.34 4.69Q182.49 4.39 182.7 4.13Q182.75 4.06 182.82 3.99Q183.04 3.75 183.3 3.57Q183.38 3.52 183.46 3.48Q183.54 3.43 183.63 3.39Q183.9 3.25 184.21 3.18Q184.52 3.11 184.83 3.11Q185.15 3.11 185.46 3.19Q185.69 3.25 185.89 3.34Q186.27 3.51 186.6 3.8L186.61 3.81L186.62 3.82Q187.23 4.34 187.93 4.7Q188.34 4.91 188.78 5.07Q189.43 5.31 190.1 5.4Q190.66 5.48 191.22 5.47L204.77 5.47Q205.33 5.48 205.89 5.4Q206.56 5.31 207.21 5.07Q207.65 4.91 208.06 4.7Q208.76 4.34 209.37 3.82L209.38 3.81L209.39 3.8Q209.72 3.51 210.1 3.34Q210.3 3.25 210.53 3.19Q210.77 3.13 211.02 3.12Q211.4 3.09 211.8 3.19Q211.92 3.21 212.04 3.25Q212.29 3.34 212.53 3.48Q212.61 3.52 212.69 3.57Q212.95 3.75 213.17 3.99Q213.24 4.06 213.3 4.13Q213.51 4.39 213.66 4.69Q213.72 4.82 213.77 4.94Z" fill="#DDCA69" fill-opacity="1.000000" fill-rule="evenodd"/>
	<path id="4.2/5" d="M241.83 14.16Q241.86 14.17 241.9 14.17L242.44 14.17Q242.6 14.17 242.68 14.1Q242.69 14.09 242.69 14.08Q242.78 13.99 242.81 13.92L247.61 2.44Q247.64 2.33 247.64 2.27Q247.64 2.23 247.63 2.19Q247.61 2.13 247.55 2.08Q247.51 2.03 247.45 2.01Q247.41 1.99 247.36 1.99L246.81 1.99Q246.65 1.99 246.57 2.07Q246.57 2.08 246.57 2.08Q246.49 2.16 246.45 2.24L241.66 13.72Q241.62 13.82 241.62 13.89Q241.62 13.94 241.63 13.98Q241.65 14.04 241.7 14.09Q241.76 14.14 241.83 14.16ZM250.15 12.75Q250.91 13.14 252.02 13.14Q253.06 13.14 253.87 12.75Q254.35 12.52 254.71 12.17Q254.96 11.92 255.14 11.62Q255.61 10.88 255.61 9.82Q255.61 9.06 255.34 8.48Q255.16 8.09 254.89 7.78Q254.76 7.63 254.61 7.49Q254.5 7.4 254.39 7.32Q254 7.04 253.53 6.88Q252.92 6.67 252.22 6.67Q251.46 6.67 251.03 6.84Q250.61 7.02 250.4 7.14L250.66 4.39L254.69 4.39Q254.8 4.39 254.88 4.34Q254.9 4.32 254.93 4.3Q254.95 4.29 254.96 4.27Q255.02 4.19 255.02 4.06L255.02 3.52Q255.02 3.43 254.98 3.36Q254.96 3.32 254.93 3.29Q254.89 3.25 254.85 3.23Q254.78 3.2 254.69 3.2L249.81 3.2Q249.69 3.2 249.61 3.25Q249.59 3.27 249.56 3.29Q249.48 3.38 249.46 3.54L249.01 8.22Q249 8.27 249.02 8.32Q249.04 8.39 249.1 8.44Q249.16 8.49 249.22 8.51Q249.27 8.53 249.32 8.53L250.05 8.53Q250.16 8.53 250.26 8.49Q250.33 8.47 250.4 8.42Q250.57 8.31 250.77 8.15Q250.97 8 251.27 7.89Q251.56 7.77 252.02 7.77Q252.63 7.77 253.12 8.01Q253.12 8.01 253.13 8.02Q253.44 8.17 253.67 8.4Q253.81 8.54 253.92 8.72Q253.93 8.73 253.93 8.74Q254.21 9.19 254.21 9.8Q254.21 10.49 253.91 10.97Q253.75 11.23 253.53 11.43Q253.34 11.59 253.12 11.7Q253.06 11.73 253.01 11.75Q252.56 11.95 252.02 11.95Q251.72 11.95 251.43 11.88Q251.3 11.85 251.16 11.8Q251.02 11.75 250.89 11.68Q250.64 11.54 250.43 11.32Q250.12 10.99 249.98 10.48Q249.92 10.29 249.82 10.23Q249.8 10.22 249.78 10.2Q249.69 10.17 249.6 10.17L248.84 10.17Q248.76 10.17 248.69 10.2Q248.66 10.22 248.63 10.25Q248.6 10.27 248.59 10.3Q248.55 10.37 248.56 10.45Q248.57 10.61 248.6 10.77Q248.69 11.28 248.99 11.75Q249.39 12.37 250.15 12.75Z" fill="#FFFFFF" fill-opacity="1.000000" fill-rule="evenodd"/>
	<path id="4.2/5" d="M235.21 12.75Q235.98 13.14 237.08 13.14Q238.12 13.14 238.93 12.75Q239.41 12.52 239.77 12.17Q240.02 11.92 240.2 11.62Q240.67 10.88 240.67 9.82Q240.67 9.06 240.4 8.48Q240.22 8.09 239.96 7.78Q239.82 7.63 239.67 7.49Q239.56 7.4 239.45 7.32Q239.06 7.04 238.59 6.88Q237.98 6.67 237.28 6.67Q236.52 6.67 236.1 6.84Q235.67 7.02 235.46 7.14L235.73 4.39L239.76 4.39Q239.86 4.39 239.94 4.34Q239.96 4.32 239.99 4.3Q240.01 4.29 240.02 4.27Q240.08 4.19 240.08 4.06L240.08 3.52Q240.08 3.43 240.04 3.36Q240.02 3.32 239.99 3.29Q239.95 3.25 239.91 3.23Q239.84 3.2 239.76 3.2L234.87 3.2Q234.75 3.2 234.67 3.25Q234.65 3.27 234.63 3.29Q234.54 3.38 234.52 3.54L234.07 8.22Q234.07 8.27 234.08 8.32Q234.1 8.39 234.16 8.44Q234.22 8.49 234.29 8.51Q234.33 8.53 234.38 8.53L235.11 8.53Q235.22 8.53 235.32 8.49Q235.4 8.47 235.47 8.42Q235.63 8.31 235.83 8.15Q236.03 8 236.33 7.89Q236.62 7.77 237.08 7.77Q237.69 7.77 238.18 8.01Q238.19 8.01 238.19 8.02Q238.5 8.17 238.73 8.4Q238.87 8.54 238.98 8.72Q238.99 8.73 239 8.74Q239.27 9.19 239.27 9.8Q239.27 10.49 238.97 10.97Q238.81 11.23 238.59 11.43Q238.41 11.59 238.18 11.7Q238.12 11.73 238.07 11.75Q237.62 11.95 237.08 11.95Q236.78 11.95 236.5 11.88Q236.36 11.85 236.22 11.8Q236.08 11.75 235.95 11.68Q235.7 11.54 235.49 11.32Q235.18 10.99 235.04 10.48Q234.98 10.29 234.89 10.23Q234.86 10.22 234.84 10.2Q234.76 10.17 234.66 10.17L233.9 10.17Q233.82 10.17 233.76 10.2Q233.72 10.22 233.69 10.25Q233.66 10.27 233.65 10.3Q233.62 10.37 233.62 10.45Q233.63 10.61 233.66 10.77Q233.75 11.28 234.05 11.75Q234.45 12.37 235.21 12.75Z" fill="#FFFFFF" fill-opacity="1.000000" fill-rule="evenodd"/>
</svg>
